<!-- Generated by IcoMoon.io -->
<svg version="1.1" xmlns="http://www.w3.org/2000/svg" width="32" height="32" viewBox="0 0 32 32">
<title>arrow-down</title>
<path d="M17.218 26.64c-0.65 0-1.3 0-1.949 0-0.812 0-1.137-0.812-1.624-1.299-3.736-4.386-7.797-8.609-11.533-12.995-0.325-0.325-0.65-0.65-0.975-0.975-0.487-0.487-0.975-0.812-1.137-1.787 0-0.162 0-0.162 0-0.325 0.325-0.975 0.975-1.624 1.462-2.112 0.487-0.812 0.975-1.624 1.787-1.787 0 0 0 0 0.162 0 0.65 0.162 0.975 0.487 1.3 0.975 2.599 3.086 5.198 5.848 7.959 8.772 0.487 0.65 0.975 1.137 1.462 1.624s1.137 0.975 1.787 1.137c0.812 0.162 1.624-0.162 2.112-0.65 0.487-0.65 0.975-1.137 1.462-1.787 2.599-2.924 5.198-5.685 7.959-8.772 0.325-0.325 0.487-0.812 0.975-0.975 0.812-0.325 1.299 0.162 1.624 0.812 0.487 0.487 0.812 0.975 1.137 1.462s0.812 0.812 0.812 1.462c0 0.162 0 0.325 0 0.325-0.162 0.812-0.487 1.137-0.975 1.787-3.898 4.386-7.635 8.609-11.533 12.832-0.325 0.325-0.487 0.65-0.812 1.137-0.487 0.65-0.65 0.975-1.462 1.137z"></path>
</svg>
