<!-- Generated by IcoMoon.io -->
<svg version="1.1" xmlns="http://www.w3.org/2000/svg" width="32" height="32" viewBox="0 0 32 32">
<title>best-deals-menu</title>
<path d="M32 4.593c0-1.072 0-2.45-0.153-3.215-0.306-0.766-1.072-1.225-2.144-1.378-3.828 0-7.655 0-11.33 0-1.837 0-2.45 1.072-3.522 2.144-4.134 4.134-8.421 8.421-12.555 12.555-0.919 0.919-2.144 1.837-2.297 3.062 0 0.153 0 0.153 0 0.153 0.153 1.072 0.766 1.531 1.378 2.144 3.522 3.522 7.043 6.89 10.565 10.565 0.612 0.612 1.225 1.378 2.144 1.378 1.072 0 1.837-1.072 2.603-1.837 4.44-4.593 8.574-8.727 13.014-13.014 0.766-0.766 1.837-1.531 2.144-2.45 0.153-0.919 0.153-1.99 0.153-3.215 0-2.45 0-4.44 0-6.89zM23.12 13.627c-2.603 0-4.593-2.144-4.593-4.746 0-2.45 1.99-4.593 4.593-4.593 2.45 0 4.593 2.144 4.593 4.593 0 2.603-2.144 4.746-4.593 4.746z"></path>
</svg>
