<!-- Generated by IcoMoon.io -->
<svg version="1.1" xmlns="http://www.w3.org/2000/svg" width="32" height="32" viewBox="0 0 32 32">
<title>best-quality</title>
<path d="M23.385 8.846c0.385 0.538 1.077 0.923 1.615 1.231 0.615 0.385 1.308 0.846 2 0.846 0.308-0.769-0.769-0.923-1.462-1.308s-1.462-1.308-2.077-1.077c0.077 0.154-0.077 0.154-0.077 0.308zM22.692 10c0 0.077-0.077 0.154-0.231 0.231 0.231 0.692 1.154 0.923 1.769 1.308s1.308 1.231 2 0.692c-0.846-1.077-2.231-1.615-3.538-2.231zM23.692 12.538c-0.615-0.385-1.154-0.846-1.769-1.077-0.077 0-0.077 0-0.154 0-0.538 0.615 1 1.308 1.615 1.615 0.692 0.462 1.385 1.077 1.923 0.692-0.154-0.692-1.077-0.846-1.615-1.231zM3.769 20.154c-0.231 0.077-0.077 0.462-0.154 0.692 2 0.154 4.615 0.154 6.615 0 0-0.154 0-0.385 0-0.615-2.077-0.154-4.385 0-6.462-0.077zM9.308 23.769c-0.615 0.077-0.846 0.308-1 0.385-1.385 1.769 1.769 2.846 2.308 1.385 0.308-1.077-0.538-1.846-1.308-1.769zM8.846 25.385c-0.385-0.692 0.462-1.231 1-0.769 0.385 0.692-0.462 1.308-1 0.769zM15.385 23.769c-1.538 0.154-1.692 2.538 0 2.538 1.769 0.154 1.692-2.692 0-2.538zM15 25.385c-0.385-0.692 0.462-1.231 0.923-0.769 0.385 0.692-0.462 1.308-0.923 0.769zM21.231 23.846c-0.615 0.231-0.846 0.692-0.846 1.077-0.077 1.923 2.538 1.692 2.538 0.154 0-0.846-0.538-1.615-1.692-1.231zM21.231 25.538c0-0.154-0.077-0.231-0.154-0.308 0.154-2.077 2.385 0.692 0.154 0.308zM12.462 26.154c-2 0.077-1.462 2.615 0.077 2.538 1.769-0.077 1.308-2.615-0.077-2.538zM11.923 27.769c-0.385-0.692 0.462-1.231 0.923-0.769 0.385 0.692-0.385 1.231-0.923 0.769zM19 26.154c-0.231-0.077-0.462-0.077-0.846 0.077-1.615 0.538-0.538 2.846 0.846 2.385 1.462-0.385 0.846-2.308 0-2.462zM19 27.846c-0.231 0.077-0.615 0.077-0.846 0 0-0.154 0-0.231-0.154-0.308-0.077-0.692 0.538-0.923 1.077-0.692 0.154 0.308 0.154 0.692-0.077 1zM31.923 4.615c0.077-0.538-1.385-2-1.692-2-0.538-0.077-1.077 0.692-1.462 1-0.538 0.462-0.923 0.846-1.308 1.231-0.231-0.846 0.692-1.692 0.538-2.462-0.231-0.692-1.462-0.538-2.154-0.846 0 0 0 0 0-0.077-0.154 0-0.308 0-0.538 0-0.615 1.077-0.692 2.692-1.231 3.923 0 0.308-0.462-0.308-0.692-0.231-1.769 2.769-3.615 5.846-5.231 8.615-0.231 0.385-0.385 1.077-0.923 1.077-0.462-2.615 0.154-6.154-0.308-8.692-0.923-0.308-0.692 1.231-0.692 2 0 2.231 0 4.923 0 6.692-0.538 0-1.154 0-1.769 0-0.077-2.846 0.231-6.077-0.154-8.692-0.923-0.308-0.615 1.308-0.615 2 0 2.231 0.077 5.154-0.154 6.615-0.308-3.923-2.923-6.538-6.615-6.308-3.231 0.308-5.538 2.846-5.615 6.385-0.538 0.154-1.231 0-1.308 0.538 0 0.154 0 0.308 0 0.385 0.231 0.846 0.308 2.231 0.615 3.769 0.308 1.846 0.231 3.846 2.538 3.231 0.154 0.846 0.385 2.154 0.615 3.462 0.231 1.769 0.077 3.923 1.308 4.308 1.846 0 3.692 0 5.462 0 0.615 0 1.231 0 1.769 0 4.385 0 8.769 0 13.077 0 1-0.231 0.923-1.231 1.077-2.462 0.231-1.769 0.615-3.692 0.769-5.308 2.308 0.615 2.154-2 2.462-3.692 0.231-1.615 0.538-2.846 0.462-3.923-0.462-0.692-2.154-0.231-3.308-0.385 1-1.846 2.077-3.615 3.077-5.385 0.231-0.308-0.077-0.462-0.077-0.769 0.462-0.462 1.154-0.769 1.462-1.385 0-0.615-0.538-0.769-0.769-1.154 0.308-0.692 1.308-0.615 1.385-1.462zM7.615 9.231c3 0.154 4.923 2.385 5 5.615-1.154 0.154-2.308-0.154-3.615 0-0.231-0.462-0.385-1.231-1.077-1.385-1-0.231-1.769 0.385-1.846 1.385-1.462 0-2.846 0.154-4.077 0 0-3.462 2.385-5.769 5.615-5.615zM8.154 14.846c-0.462 0-0.923 0.077-1.385 0-0.077-0.846 1.538-0.846 1.385 0zM25.385 29.769c-6.692 0-14.231 0.077-20.385 0-0.462-2.231-0.692-4.692-1.077-6.923 7-0.077 15.308 0.077 22.615 0-0.385 2.308-0.615 4.692-1.154 6.923zM29.538 15.615c-0.385 2.154-0.692 4.385-1.077 6.462-8.538 0-18.385 0.077-26.692 0-0.385-2.154-0.692-4.308-1.077-6.385 3.846-0.308 8.385-0.077 13-0.154 0.077 0.769-0.231 1.923 0.077 2.308 1.231 0.231 0.462-1.538 0.692-2.308 0.538 0 1.154 0 1.769 0 0.077 0.769-0.231 1.923 0.154 2.308 1.154 0.231 0.385-1.538 0.615-2.308 4.308 0.154 8.154 0 12.538 0.077zM25.923 14.846c-2.385 0.077-4.769-0.154-7.462 0.077 1.385-2.923 3.462-5.846 5.077-8.846 2 1 3.769 2.154 5.692 3.231-1.077 1.923-2.154 3.769-3.308 5.538zM30.462 7.154c-0.308 0.538-0.846 0.846-1.385 1.231-1.462-0.769-2.923-1.615-4.308-2.538 0.231-1.308 0.615-2.462 0.923-3.615 0.538 0.077 1 0.231 1.538 0.385-0.154 0.846-1.154 2.846 0.077 2.923 1 0.154 1.923-1.769 2.692-2.077 0.462 0.231 0.769 0.692 1.077 1.154-0.846 0.462-1.846 1.769-0.615 2.538z"></path>
</svg>
