<!-- Generated by IcoMoon.io -->
<svg version="1.1" xmlns="http://www.w3.org/2000/svg" width="32" height="32" viewBox="0 0 32 32">
<title>burger</title>
<path d="M30.649 18.286c-0.208-0.623-1.039-0.935-1.247-1.87-0.208-0.727 0.104-1.143 0-1.974 2.597-0.623 0.416-2.182 0-3.117-0.312-0.935-0.312-1.87-0.623-2.597-0.935-2.182-2.909-4.052-5.818-4.364-2.494-0.312-5.091 0-7.584 0-2.701 0-4.987-0.312-7.688 0-3.844 0.416-6.13 3.636-6.338 7.065-0.208 0.727-1.351 1.247-1.143 2.078 0.104 0.623 0.935 0.312 1.143 1.039 0 0.623 0 1.351 0 2.078-0.831 0.935-1.351 1.455-1.143 2.805 0.104 0.935 1.039 1.143 1.143 1.87 0.312 1.143-0.208 2.494 0 3.636 0.519 3.013 4.571 2.39 8.104 2.39 4.26 0 7.792 0 11.74 0 2.078 0 4.156 0.312 5.922 0 2.597-0.312 2.39-3.429 2.39-6.13 0.623-0.831 1.351-1.455 1.143-2.909zM7.792 5.506c1.974-0.208 4.883 0 7.584 0s5.507-0.208 7.688 0c3.117 0.416 4.675 3.013 5.091 5.506-8.623 0-17.039 0-25.662 0 0.519-2.701 1.974-5.091 5.299-5.506zM2.286 12.156c7.377 0 16.623 0 24.519 0 0.935 0 2.078-0.208 2.39 0.935-1.247 0.727-3.117 0.208-3.948-0.416-1.558 1.351-4.571 1.351-6.13 0-1.974 1.558-5.403 1.558-7.273 0-1.662 1.247-4.571 1.455-6.13 0-0.935 0.519-2.805 1.143-4.052 0.416 0-0.416 0.416-0.727 0.623-0.935zM28.156 14.649c0 0.623 0 1.247 0 1.87-8.623 0-17.039 0-25.662 0 0-0.623 0-1.247 0-1.87 1.351 0.104 2.182-0.208 2.909-0.623 1.455 1.143 4.883 1.351 6.234 0 1.87 1.351 5.506 1.558 7.377 0 1.455 1.143 4.779 1.351 6.234 0 0.831 0.312 1.662 0.727 2.909 0.623zM27.636 25.766c-0.831 0.727-4.156 0.519-5.922 0.519-4.468 0-8.312 0-12.675 0-1.974 0-5.091 0.208-5.922-0.416-0.935-0.623-0.623-2.805-0.727-4.26 0-0.104 0-0.312 0.208-0.312 8.519 0 16.935 0 25.558 0-0.104 1.247 0.312 3.636-0.519 4.468zM22.753 20.156c-5.195 0-9.351 0-14.442 0-1.558 0-6.13 0.312-6.857-0.519-0.312-0.519-0.312-1.455 0.519-1.87 1.143-0.519 5.403 0 7.065 0 5.091 0 8.935 0 14.026 0 2.494 0 7.169-0.831 6.338 1.662-0.416 1.143-4.883 0.727-6.649 0.727zM10.078 7.688c1.039 0.831 2.078-0.623 1.351-1.351-1.143-0.623-1.974 0.519-1.351 1.351zM8.519 7.169c-0.104-0.312-0.416-0.519-0.935-0.312-0.831 0.208-0.831 0.519-0.831 0.831 0.104 1.351 2.597 1.039 1.766-0.519zM8.623 9.662c0.104 0.519 0.727 0.831 1.558 0.519 1.247-1.558-1.87-2.182-1.558-0.519z"></path>
</svg>
