<!-- Generated by IcoMoon.io -->
<svg version="1.1" xmlns="http://www.w3.org/2000/svg" width="32" height="32" viewBox="0 0 32 32">
<title>comments</title>
<path d="M3.93 31.607c-0.225 0-0.449 0-0.674 0-1.123-0.225-2.358 0-2.695-0.898-0.561-1.347 0.674-2.47 1.46-3.144 0.898-0.674 1.909-1.347 2.358-2.246 0.225-0.337 0.449-1.011 0.449-1.46 0-0.561-1.011-1.235-1.347-1.684-1.572-1.909-2.582-3.93-2.807-6.737-0.337-4.267 1.347-7.186 3.256-9.432s4.604-3.93 7.972-4.828c3.593-0.786 7.972-0.337 10.891 1.011 2.807 1.235 5.277 3.256 6.849 5.951s2.358 6.512 1.123 10.218c-1.011 3.256-3.032 5.502-5.614 7.186s-5.726 2.919-10.105 2.582c-0.449 0-1.235-0.225-1.684-0.112-0.225 0-0.674 0.337-0.898 0.561-2.47 1.572-4.94 2.695-8.533 3.032zM10.891 26.667c0.561-0.337 1.347-1.123 1.909-1.235 0.449 0 1.011 0.112 1.46 0.112 3.818 0.449 6.961-0.561 9.432-2.021 2.47-1.684 4.716-4.154 5.165-7.972 0.561-4.491-1.684-7.523-3.818-9.319-2.358-2.021-5.502-3.481-10.105-3.256-5.389 0.449-9.207 3.368-11.004 7.186-1.011 2.246-1.235 5.053-0.337 7.523 0.561 1.684 1.46 2.919 2.695 4.154 0.337 0.337 0.786 0.786 1.011 1.235 0.337 1.347-0.449 2.919-1.011 3.705s-1.46 1.572-2.133 2.133c-0.112 0.112-0.225 0.112-0.225 0.225 3.032-0.225 5.053-1.123 6.961-2.47z"></path>
</svg>
