<!-- Generated by IcoMoon.io -->
<svg version="1.1" xmlns="http://www.w3.org/2000/svg" width="32" height="32" viewBox="0 0 32 32">
<title>drinks</title>
<path d="M19.735 5.129c2.787 0.669 6.467 5.798 3.122 8.251 1.003 0.892 1.672 2.007 1.226 3.568-0.223 0.334-1.226 1.226-1.226 1.338 0 0.446 1.226 1.226 1.338 1.895 0.223 1.003-0.111 1.672-0.558 2.341-0.223 0.223-0.78 0.78-0.78 0.78 0 0.223 1.226 1.449 1.338 1.895 0.558 3.010-0.223 5.798-2.899 6.244-1.561 0.111-3.791 0-5.575 0-3.791 0-7.693 0.557-8.251-2.453-0.446-2.341-0.112-4.683 1.338-5.575-0.78-1.003-1.561-1.449-1.338-3.233 0.112-0.669 1.338-1.449 1.338-1.784s-1.226-1.115-1.338-1.895c-0.223-1.449 0.446-2.23 1.338-3.122-3.010-2.676 0-7.582 3.122-8.139 0.111-2.23-0.335-4.237 1.338-4.794 1.226-0.446 3.791-0.335 5.017-0.223 2.007 0.669 1.226 2.899 1.449 4.906zM13.38 1.784c-0.223 0.78-0.111 1.895-0.223 2.899 1.784 0 3.568 0 5.24 0-0.111-1.003 0.111-2.23-0.111-2.899-1.115-0.335-3.791-0.335-4.906 0zM22.3 24.418c-0.558-0.446-2.118-0.334-2.007-1.115 0.111-0.558 1.115-0.446 1.672-0.669 1.115-0.669 1.226-2.564 0.223-3.233-0.892-0.669-2.118-0.111-1.895-1.115 0.223-0.558 1.561-0.558 2.007-0.892 1.115-0.892 0.558-2.676-0.334-3.122-0.446-0.335-1.449-0.111-1.672-0.669-0.111-0.892 1.784-0.892 2.118-1.226 1.338-1.226-0.223-4.014-1.115-4.794-2.341-2.23-9.031-2.341-11.373 0.223-1.003 1.115-2.118 3.902-0.446 4.794 0.557 0.335 1.784 0 1.672 0.892 0 0.669-1.449 0.669-2.007 1.003-0.669 0.669-0.892 2.118 0 2.787 0.446 0.446 2.007 0.446 2.007 1.003 0.111 1.003-1.115 0.446-2.007 1.226-1.003 0.78-0.557 2.564 0.446 3.122 1.226 0.669 1.561-0.111 1.561 0.78 0 0.78-2.007 0.892-2.23 1.449-0.446 0.669-0.335 3.345-0.223 3.902 0.446 2.118 3.902 1.449 7.024 1.449 3.568 0 6.467 0.558 7.136-1.338-0.111-1.561 0.558-3.456-0.558-4.46z"></path>
</svg>
