<!-- Generated by IcoMoon.io -->
<svg version="1.1" xmlns="http://www.w3.org/2000/svg" width="32" height="32" viewBox="0 0 32 32">
<title>edit</title>
<path d="M30.833 6.25c-0.5-0.833-1.5-1.5-2.333-2.5-1-1-1.833-2-2.667-2.5-0.333-0.167-0.833-0.333-1.167-0.333-0.167 0-0.333 0-0.333 0-1.5 0.167-2 1.167-2.833 2 2.5 2.667 5.167 5.333 7.833 8 1-1.167 2.667-2.667 1.5-4.667zM27.333 11.25c-2.333-2.333-5.167-5.167-7.167-7.167-0.667 0.5-1.167 1.167-1.833 1.667 2.667 2.833 5.333 5.5 8 8.167 0.333-0.167 0.667-0.5 1-0.833 0.333-0.167 1-0.667 1-0.833-0.167-0.167-1-1-1-1zM24.333 14.417c0-0.167-0.667-0.833-0.833-0.833 0 0-0.667 0.667-0.833 0.667-3.667 3.667-7 7.167-10.667 10.667-0.5 0.5-1 1.333-1.667 1.5-0.167 0.167-0.833 0.333-1.167 0.333-0.833 0.167-1.667 0.5-2.667 0.833-0.333 0-0.833 0.333-1.167 0.333s-1.167-1-1.333-1.167c0-0.333 0.333-1 0.5-1.5 0.333-1 0.5-1.667 0.667-2.5 0.167-0.5 0.167-1 0.333-1.333 0.167-0.667 1.167-1.167 1.667-1.667 3.667-3.667 7.5-7.5 11.167-11.167-0.333-0.667-1-1.167-1.333-1.667-4.167 3.833-8.333 8.333-12.5 12.333-0.333 0.333-0.667 0.667-0.833 0.833-0.333 0.667-0.667 1.667-0.833 2.5-0.5 1.667-1 3.167-1.5 5-0.333 1.167-1.333 3.167 0.5 3.5 0 0 0.167 0 0.333 0 2.667-0.833 5.667-1.667 8.5-2.667 0.5 0 1-0.167 1.333-0.167 0.167-0.167 0.5-0.667 0.833-1 3.833-4.167 8.333-8.167 12.333-12.167-0.167-0.167-0.5-0.333-0.833-0.667zM6.833 23.083c0.667 0 1.333 0.167 1.833 0.333 0.167 0.667 0.167 1.167 0.333 1.667 4.167-4.167 8.667-8.667 13-13-0.833-0.667-1.5-1.5-2.167-2-3.833 3.833-7.667 7.667-11.5 11.333-0.5 0.5-1 1-1.5 1.667z"></path>
</svg>
