<!-- Generated by IcoMoon.io -->
<svg version="1.1" xmlns="http://www.w3.org/2000/svg" width="32" height="32" viewBox="0 0 32 32">
<title>fries</title>
<path d="M1.816 12.255c0-0.113 0-0.113 0-0.227 0.227-0.681 1.475-0.34 2.383-0.454-0.227-2.837-1.135-5.56-1.021-8.284 1.475-0.34 3.177-0.567 4.652-1.021 0.113-0.567-0.34-1.475 0.227-1.929 1.589-0.113 3.858-0.34 5.674-0.113 0.113 0.567 0.227 1.135 0.227 1.816 1.248 0 2.61 0 3.858 0 0.227-0.567-0.113-1.702 0.454-1.929 1.702 0 4.312 0 5.674 0.794 0 1.135-0.34 2.61-0.227 3.631 1.702 0.227 3.972-0.113 4.879 0.908-0.113 2.043-0.794 3.858-0.908 6.014 0.794 0.113 1.929-0.113 2.496 0.227-1.589 6.922-3.518 13.617-5.674 20.085-5.447 0.227-11.574 0.227-17.021 0-2.043-6.241-3.745-13.050-5.674-19.518zM9.078 1.702c0.454 4.426 1.021 8.965 1.362 13.504 1.021 0.681 2.156 2.043 3.745 1.816-0.681-5.106-1.021-10.44-1.702-15.546-1.248-0.113-2.496 0-3.404 0.227zM19.291 1.475c-0.681 4.879-1.135 10.667-1.248 15.773 1.362-0.454 2.496-1.021 3.291-1.816 0.227-4.652 1.021-8.965 1.248-13.617-1.248-0.113-2.156-0.34-3.291-0.34zM14.071 3.745c0.113 2.156 0.454 4.539 0.681 6.809s0.227 4.652 1.021 6.695c0.227 0 0.454 0 0.794 0 0.454-4.426 0.794-9.191 1.135-13.957-1.248 0-2.496 0-3.745 0 0 0.227 0 0.34 0.113 0.454zM9.078 12.823c-0.454-2.95-0.681-6.241-1.021-9.305-1.248 0.34-2.496 0.34-3.631 0.681 0.34 2.496 0.794 4.766 1.021 7.376 0.908 0 2.043-0.227 2.837 0.113 0.34 0.113 0.34 1.362 0.794 1.135zM22.809 13.504c0.34-0.567 0.454-1.362 1.021-1.816 0.567-0.227 1.702-0.113 2.496-0.113 0.227-1.929 0.681-3.631 0.908-5.447-1.248 0-2.383-0.34-3.745-0.34-0.113 2.723-0.681 5.333-0.681 7.716zM8.284 30.752c5.106 0 10.326 0 15.319 0 1.702-6.014 3.404-11.915 5.106-17.929-1.362 0-2.723 0-4.085 0-1.248 2.95-3.631 5.447-7.376 5.787-4.993 0.454-8.397-2.156-9.759-5.787-1.362 0.113-3.064-0.113-4.199 0.113 1.702 5.901 3.404 11.915 4.993 17.816z"></path>
</svg>
