<!-- Generated by IcoMoon.io -->
<svg version="1.1" xmlns="http://www.w3.org/2000/svg" width="32" height="32" viewBox="0 0 32 32">
<title>likes-post</title>
<path d="M18.578-0c0.264 0 0.529 0 0.793 0 2.248 0.661 3.967 4.496 2.777 7.537-0.529 1.719-1.719 2.645-2.116 3.835 1.058 0.529 2.645 0.264 3.967 0.264 1.455 0 3.041 0 4.099 0.397 2.116 0.661 3.438 3.967 1.719 5.818 1.322 1.455 0.793 3.702-0.397 4.76 0.926 1.587-0.132 3.306-0.926 4.231 1.322 4.628-5.289 4.76-8.992 5.157-0.529 0-1.058 0-1.587 0-3.306-0.264-5.686-1.455-8.992-1.587-0.661 0.926-2.248 0.793-4.231 0.793-0.926 0-2.248 0.132-2.777-0.132-1.455-0.529-1.322-2.248-1.322-4.496 0-2.116 0-4.364 0-6.479 0-1.058-0.132-2.38 0.132-3.174 0.529-1.587 1.983-1.322 3.967-1.322 1.058 0 1.983-0.132 2.777 0 0.529 0 0.926 0.397 1.322 0.397 1.851-1.322 1.851-3.57 3.041-5.421 0.397-0.661 1.058-1.455 1.587-2.116 0.661-0.529 1.455-1.058 1.851-1.719 0.529-0.793 0.793-1.719 1.058-2.777 0.397-1.851 0.397-3.702 2.248-3.967zM18.578 30.149c1.587 0 3.041-0.264 4.496-0.529 1.19-0.264 3.438-0.529 3.57-1.455 0.132-0.397-0.264-1.19-0.132-1.851 0.132-0.793 1.322-1.587 1.322-2.248 0-0.529-0.529-1.19-0.529-1.719 0.132-0.926 1.455-1.587 1.455-2.38 0-0.529-1.058-1.322-0.926-2.116 0-0.661 0.926-1.587 0.926-2.248 0-0.793-0.926-1.19-1.19-1.719-1.983-0.397-4.76 0-7.008-0.132-1.19-0.132-2.645-0.926-2.645-1.983-0.264-1.851 1.851-3.041 2.38-5.025 0.529-1.719-0.132-3.57-1.19-4.76 0 0 0 0-0.132 0s-0.132 0.132-0.132 0.132c-0.397 2.116-0.661 3.835-1.455 5.289-0.926 1.587-2.645 2.38-3.702 4.099-0.529 0.793-0.661 2.116-1.19 3.041-0.397 1.058-0.926 1.851-1.587 2.512-0.264 0.397-1.322 0.793-1.455 1.322s0 1.719 0 2.512c0 2.645 0 5.157 0 7.669 3.306-0.132 5.686 1.587 9.124 1.587zM2.578 29.223c1.587 0 3.174 0 4.76 0 0-3.835 0-7.802 0-11.636-1.587 0-3.041 0-4.76 0 0 3.835 0 7.802 0 11.636z"></path>
</svg>
