<!-- Generated by IcoMoon.io -->
<svg version="1.1" xmlns="http://www.w3.org/2000/svg" width="32" height="32" viewBox="0 0 32 32">
<title>load-more-icon</title>
<path d="M7.218 7.218c1.804-2.165 4.692-4.090 9.023-4.090 4.211 0 7.218 2.165 9.383 4.812-1.083 0-1.925 0-3.128 0-0.962 0-2.406-0.12-2.526 0.602-0.361 1.564 2.647 1.083 3.85 1.083 1.805 0 3.128 0 4.451 0 0-1.925 0-4.451 0-6.496 0-1.083 0.241-2.526-0.842-2.286-0.962 0-0.602 1.684-0.602 3.008 0 1.203 0 2.286 0 3.128-2.887-4.211-9.865-6.977-16.12-4.090-3.729 1.684-6.496 4.932-7.699 9.383-0.241 0.722-1.203 4.571 0.241 4.571 0.962-0.12 0.722-1.564 0.842-2.526 0.361-3.128 1.684-5.534 3.128-7.098zM28.872 15.158c-0.722 0.12-0.481 1.083-0.602 1.925-0.241 2.767-1.323 5.053-2.647 6.977-1.444 1.805-3.008 3.008-5.534 3.97-5.173 1.805-10.707-0.241-13.233-4.090 1.083 0 2.045 0 3.248 0 1.083 0 2.526 0.241 2.286-0.962-0.12-0.962-2.647-0.602-3.85-0.602-1.564 0-3.008 0-4.451 0 0 1.564 0 3.008 0 4.692 0 1.323-0.361 4.090 0.722 4.090 1.083 0.12 0.722-1.444 0.722-2.526 0-1.323 0-2.406 0-3.609 3.008 3.97 9.383 6.977 15.88 4.331 4.211-1.805 7.459-5.654 8.301-11.188 0-1.203 0.481-3.248-0.842-3.008z"></path>
</svg>
