<!-- Generated by IcoMoon.io -->
<svg version="1.1" xmlns="http://www.w3.org/2000/svg" width="32" height="32" viewBox="0 0 32 32">
<title>mail-icon</title>
<path d="M31.728 11.166c0-1.498 0.272-3.677-0.136-4.63-0.409-1.089-1.634-1.906-2.86-1.906h-25.328c-1.77 0.136-2.451 0.817-2.996 1.906-0.408 1.226-0.136 3.132-0.136 4.63v9.396c0 1.634-0.272 3.404 0.136 4.63 0.545 2.179 2.451 2.179 5.447 2.179h20.426c1.226 0 2.451 0 3.268-0.136 0.817-0.272 1.634-0.817 1.906-1.634 0.409-0.953 0.272-3.132 0.272-4.63zM28.596 24.374h-25.055v-16.885c0 0 0-0.136 0-0.136h25.192v17.021zM25.872 11.847c0.409-0.272 1.226-0.681 1.226-0.953 0.409-0.817-0.272-1.906 0-2.723-3.677 1.906-7.217 4.221-11.030 6.264-3.677-2.179-7.353-4.085-11.030-6.264v2.86c3.677 2.043 7.353 4.221 11.166 6.264 2.86-1.77 6.4-3.677 9.668-5.447z"></path>
</svg>
