<!-- Generated by IcoMoon.io -->
<svg version="1.1" xmlns="http://www.w3.org/2000/svg" width="32" height="32" viewBox="0 0 32 32">
<title>map-marker</title>
<path stroke="white" fill="white" d="M26.648 9.239c-0.338-1.915-1.014-3.493-2.028-4.732-1.803-2.479-5.070-4.507-9.239-4.282-2.028 0.113-3.831 0.789-5.183 1.577-2.479 1.577-4.732 4.507-4.958 8.113-0.113 2.028 0.338 3.831 0.789 5.746 1.577 5.634 4.958 10.479 8.338 14.648 0.451 0.563 1.127 1.69 1.69 1.69s1.239-1.239 1.69-1.69c0.563-0.676 1.014-1.352 1.465-1.916 2.817-3.831 5.634-8.338 6.986-13.183 0.451-1.803 0.676-3.944 0.451-5.972zM24.732 14.873c-1.69 6.197-5.408 10.93-8.789 15.324-3.155-3.831-6.31-8.225-8.338-13.521-0.563-1.69-1.127-3.831-1.127-5.972 0-2.704 1.127-4.845 2.592-6.31 1.352-1.465 3.268-2.704 5.972-2.817 4.056-0.338 6.761 1.577 8.451 3.831 0.789 1.127 1.577 2.366 1.803 4.169s-0.113 3.606-0.563 5.296zM15.718 6.873c-2.028 0.113-3.268 1.239-3.944 2.366-0.563 1.127-0.676 3.042-0.113 4.169 0.451 1.014 1.239 1.69 2.141 2.141 4.056 2.028 8.225-1.915 6.423-5.972-0.563-1.465-2.141-2.817-4.507-2.704zM16.507 14.761c-2.366 0.338-4.507-1.69-3.831-4.169 0.338-1.014 1.127-2.254 2.817-2.479 2.028-0.113 3.718 1.239 3.831 2.93 0.225 2.141-1.239 3.493-2.817 3.718z"></path>
</svg>
