<!-- Generated by IcoMoon.io -->
<svg version="1.1" xmlns="http://www.w3.org/2000/svg" width="32" height="32" viewBox="0 0 32 32">
<title>marker-hand-drawned</title>
<path d="M15.739 0c0.627 0 1.15 0 1.673 0 5.229 0.523 8.261 3.242 8.889 8.366 0 0.627 0 1.15 0 1.778-1.255 6.588-4.183 11.817-6.902 17.046-0.837 1.673-1.569 3.66-3.242 4.81-0.105 0-0.209 0-0.418 0-1.359-1.359-2.301-3.033-3.137-4.706-0.941-1.673-1.778-3.451-2.614-5.229-1.569-3.451-3.556-6.902-4.288-11.19 0-0.523 0-1.15 0-1.673 0.837-5.647 4.497-8.366 10.039-9.203zM23.477 4.288c-0.418-0.523-1.15-1.15-1.359-1.673-0.523-0.837-1.255-1.046-2.301-1.359-4.392-1.255-9.098 0.314-11.19 2.719-0.941 1.15-1.987 3.033-2.091 5.020-0.209 2.51 0.837 4.392 1.778 6.17 1.673 3.346 3.346 6.274 5.020 9.307 0.837 1.569 1.569 3.137 2.614 4.392 0.314-0.209 0.523-0.523 0.523-0.837-0.418-0.837-1.255-1.359-1.673-2.196 1.046-0.523 1.255 1.255 2.196 1.569 0.418-1.359-1.778-1.778-1.464-2.928 0.941 0 1.359 1.673 2.091 1.882 0.732-0.732-0.209-1.359-0.732-1.987-0.523-0.523-1.15-0.941-0.941-1.464 0.627 0 1.046 0.627 1.359 1.15 0.418 0.418 0.732 0.941 1.255 1.359 0.523-1.359-0.418-1.987-1.046-2.824-0.418-0.627-1.046-1.15-1.255-1.673 0.837-0.314 1.15 0.732 1.569 1.255 0.418 0.627 0.941 1.255 1.359 1.673 0.523-0.523 0-0.941-0.418-1.359-0.627-0.837-1.569-1.778-1.987-2.614 0.627-0.627 1.359 0.627 1.882 1.255 0.523 0.732 0.837 1.464 1.464 1.569 0.105-0.209 0-0.732 0.105-0.837-0.418-0.732-0.941-1.255-1.359-1.882-0.523-0.523-1.046-1.15-1.359-1.882 0.105 0 0.105-0.209 0.209-0.209 0.732 0.314 1.15 1.046 1.569 1.673s0.732 1.359 1.359 1.778c0.314-0.105 0.314-0.627 0.523-0.941-0.941-1.569-2.196-2.824-3.137-4.183 0.523-0.523 0.732 0.209 1.046 0.418 0.837 1.15 1.673 2.405 2.405 3.346 0-0.314 0.209-0.523 0.209-0.941-0.732-1.15-1.569-2.301-2.405-3.346-0.209-0.314-0.732-0.523-0.627-1.15 0.523 0 0.837 0.627 1.046 0.941 0.941 1.15 1.673 2.301 2.614 3.242 0.314-1.15-0.627-1.987-1.255-2.824s-1.359-1.673-1.569-2.614c0.418 0 0.732 0.523 0.941 0.941 0.837 1.046 1.464 2.405 2.301 3.451 0.105-0.523 0.627-1.046 0.627-1.569 0-0.209-0.523-0.732-0.732-1.046-0.837-1.046-1.987-2.196-2.301-3.137 0.418-0.418 0.837 0.314 1.15 0.627 0.837 0.941 1.569 2.301 2.301 2.824 0.209-0.209 0.314-0.627 0.418-0.941-0.837-1.046-1.882-2.301-2.719-3.242-0.314-0.314-0.837-0.837-0.523-1.255 0.837 0.314 1.359 1.15 1.882 1.882s1.046 1.569 1.778 2.091c0.105-0.837-0.418-1.255-0.837-1.882-0.732-0.941-1.359-1.673-2.091-2.51-0.209-0.314-0.941-0.941-0.418-1.255 1.569 1.15 2.301 3.137 3.765 4.497 0.627-1.255-0.209-1.673-0.732-2.405-0.732-0.837-1.359-1.673-2.091-2.405-0.418-0.418-0.837-0.837-0.941-1.255 0.627-0.105 0.837 0.523 1.15 0.837 1.15 1.15 2.091 2.405 3.242 3.451 0-1.046-0.732-1.569-1.359-2.301-0.732-0.941-1.569-1.778-2.301-2.719-0.418-0.523-0.837-0.837-1.15-1.464 0.418-0.732 1.255 0.627 1.464 0.941 0.837 0.941 1.464 1.673 2.196 2.614 0.314 0.418 0.627 0.941 1.046 1.15 0.105-1.464-0.627-1.987-1.359-2.719-1.359-1.359-2.719-2.719-3.869-3.974 0.105-0.209 0.105-0.209 0.314-0.314 0.941 0.523 1.673 1.359 2.301 2.196 0.732 0.732 1.255 1.673 2.091 2.405 0.105-1.255-0.837-1.778-1.569-2.51zM9.987 4.915c-0.105 0.732-0.732 1.15-1.15 1.673-0.523 0.627-1.046 1.464-0.941 2.614 0.105 0.523 0.209 1.15 0.418 1.673 0.105 0.523 0.418 1.15 0 1.569-0.837-0.209-1.046-1.359-1.046-2.196-0.209-1.673 0.209-2.928 0.837-4.078 0.523-0.523 1.046-1.569 1.882-1.255zM15.32 4.915c1.359-0.105 2.614 0.523 3.033 1.882 0.418 1.255-0.209 3.137-1.464 3.451-1.255 0.523-2.928-0.105-3.556-0.837-1.255-1.778 0-4.288 1.987-4.497zM14.484 7.529c-0.209 0.837 0.418 1.882 0.941 1.987 1.987 0.523 3.137-3.137 0.523-2.928-0.627 0.105-1.359 0.523-1.464 0.941z"></path>
</svg>
