<!-- Generated by IcoMoon.io -->
<svg version="1.1" xmlns="http://www.w3.org/2000/svg" width="32" height="32" viewBox="0 0 32 32">
<title>master-chef</title>
<path d="M21.842 3.666c-0.993-1.757-2.673-2.826-4.964-3.284h-1.68c-2.444 0.458-4.048 1.68-5.117 3.36-0.993-0.458-1.757-0.993-2.979-1.146-3.742-0.382-6.492 1.909-7.103 5.27v1.527c0.535 2.368 2.291 3.59 4.277 4.582 1.146 0.535 2.673 0.687 3.437 1.451 1.604 1.375 0.916 4.277 1.222 6.95 3.131 1.986 11.074 1.986 14.129 0 0.153-3.208 0-5.957 1.68-7.179 2.597-1.986 7.255-1.909 7.179-6.492v-0.764c-0.153-4.811-6.263-6.721-10.081-4.277zM23.446 15.274c-1.146 1.451-1.069 4.277-1.069 6.721-3.284 1.375-9.394 1.375-12.754 0 0.076-2.826 0.153-6.186-1.604-7.408-0.764-0.458-1.909-0.764-2.749-1.146-1.986-0.84-4.811-2.138-4.43-5.422 0.305-3.742 5.346-6.263 8.936-3.513-0.84 1.451-0.687 4.048 0 5.652 0.153 0.458 0.687 1.68 1.222 1.451 0.535-0.306-0.611-1.833-0.687-2.062-1.451-3.895 1.222-7.943 5.041-8.325 3.131-0.382 5.041 1.375 6.263 3.513 3.666-2.673 9.317-0.993 9.547 3.284 0.229 5.422-5.499 4.353-7.714 7.255zM24.057 12.22c-2.291 0.535-3.666 1.986-3.666 4.735 0.153 0.153 0.535 0 0.764 0.076 0-2.444 1.222-3.59 3.055-4.124 0.076-0.382-0.229-0.382-0.153-0.687zM13.060 20.62c-0.993 0.229-2.444-0.993-2.368 0.458 0.764 0.076 1.451 0.305 2.215 0.382 0.153-0.153 0.076-0.535 0.153-0.84zM19.399 20.62c0 0.382 0.153 0.382 0.153 0.687 0.764 0 1.451-0.153 2.062-0.382 0-0.305-0.153-0.382-0.153-0.611-0.84 0-1.375 0.229-2.062 0.305zM14.816 21.613h2.902v-0.84h-2.902zM16.955 27.036c-0.229 0-0.687 0.229-0.916 0.229-0.611 0-1.146-0.458-1.68-0.458-2.138 0-3.895 2.444-6.721 1.298 1.222 1.68 5.804 3.513 8.248 1.604 0.535 0.458 1.298 0.764 2.138 0.916h1.527c2.062-0.458 3.666-1.222 4.888-2.52-3.131 1.222-4.735-1.527-7.485-1.069zM17.107 29.556c-0.382-0.076-0.764-0.687-1.146-0.764-0.458 0-0.916 0.611-1.298 0.764-1.527 0.687-3.131 0.153-4.353-0.535 1.833-0.305 3.666-2.215 5.652-0.916 2.062-1.298 3.742 0.687 5.728 0.916-1.298 0.764-3.055 1.222-4.582 0.535z"></path>
</svg>
