<!-- Generated by IcoMoon.io -->
<svg version="1.1" xmlns="http://www.w3.org/2000/svg" width="32" height="32" viewBox="0 0 32 32">
<title>on-time</title>
<path d="M24.366 6.863c0.308-0.463 0.386-2.082-0.154-2.39-1.465 0-2.93 0-4.472 0-0.308 0.386-0.231 1.619-0.154 2.313 1.311 0.308 3.393 0.154 4.781 0.077zM20.202 5.166c1.234 0 2.467 0 3.701 0 0 0.386 0 0.694 0 1.080-1.234 0-2.467 0-3.701 0 0-0.308 0-0.694 0-1.080zM28.993 8.096c-0.771-0.386-1.388-0.848-2.159-1.157-0.077 0.231-0.231 0.386-0.231 0.694 0.771 0.231 1.311 0.771 2.005 1.080 0.077-0.308 0.308-0.308 0.386-0.617zM15.422 8.713c0.617-0.308 1.080-0.771 1.851-1.002 0-0.308-0.154-0.386-0.231-0.617-0.771 0.308-1.619 0.617-2.005 1.311 0.077 0.077 0.077 0.308 0.386 0.308zM22.67 7.634c-4.395-0.308-7.788 2.236-9.33 4.935-0.231 0.231-0.231 0.771-0.694 0.925-0.771-0.54 0.154-0.463 0-1.157-1.234 0.077-2.159 0.771-3.007 1.465-1.311 1.388-2.159 3.701-1.696 5.937 0.463 2.545 2.545 4.549 5.089 5.012 0.54 0.154 1.311-0.077 1.851 0.154 0.54 0.077 0.771 0.54 1.234 0.925-5.32 0.771-9.33-2.39-9.484-7.402-0.077-4.010 2.622-6.323 5.629-7.634 0-0.154-0.154-0.308-0.154-0.463-3.393 1.002-6.4 3.933-6.014 8.79 0.308 4.627 4.704 8.405 10.024 7.48 0.231-0.077 0.54-0.231 0.848-0.231 0.463 0 1.080 0.386 1.619 0.54 0.54 0.231 1.157 0.463 1.619 0.54 1.234 0 2.39 0 3.547 0 4.627-1.157 7.557-3.933 8.251-9.022 0-0.54 0-1.080 0-1.619-0.771-5.089-3.855-8.79-9.33-9.176zM11.566 13.263c0.463 0.231 0.694 0.694 1.002 1.080-0.154 0.231-0.231 0.617-0.308 0.925-0.694-0.231-1.080-0.848-1.619-1.157 0.154-0.463 0.617-0.54 0.925-0.848zM9.947 14.573c0.848 0.386 1.388 1.080 2.082 1.696 0.077 0.231-0.154 0.308-0.077 0.617-1.080-0.231-2.005-0.463-3.007-0.771 0.308-0.617 0.694-1.080 1.002-1.542zM8.79 16.733c0.077 0 0.077 0.077 0.077 0.077 0.54 0.077 1.234 0.231 1.774 0.386 0.463 0.154 1.234 0.231 1.388 0.771-0.848 0.386-2.236 0.154-3.47 0.154 0-0.54 0.077-1.080 0.231-1.388zM8.636 18.814c1.157 0 2.467-0.077 3.393 0.154 0.077 0.694-0.848 0.694-1.388 0.848-0.54 0.231-1.234 0.386-1.774 0.463-0.154-0.308-0.386-1.002-0.231-1.465zM9.176 20.896c1.002-0.308 2.005-0.617 3.084-0.848 0 0.077 0 0.308 0.154 0.308-0.694 0.771-1.542 1.388-2.39 1.928-0.308-0.463-0.694-0.771-0.848-1.388zM10.641 22.824c0-0.077 1.465-1.388 2.005-1.542 0.463 0.848-0.463 1.542-0.617 2.39-0.154-0.077-1.388-0.54-1.388-0.848zM12.646 23.904c0.154-0.463 0.463-0.771 0.617-1.234 0.54 0.308 0.617 1.080 1.234 1.388-0.617 0.231-1.388 0-1.851-0.154zM31.383 18.275c-0.308 4.704-3.778 8.096-8.174 8.636-5.552 0.617-11.643-4.010-10.487-11.027 0.617-3.47 3.239-6.169 6.246-7.171 0.54-0.154 1.234-0.308 2.082-0.386 3.239-0.308 5.86 0.925 7.557 2.622 1.619 1.619 3.007 4.087 2.776 7.325zM22.361 10.949c0.154-0.463 0.077-1.234 0.077-1.851-1.080-0.54-0.771 1.234-0.694 1.851 0.231 0 0.386 0 0.617 0zM20.048 10.41c-2.545 0.771-4.318 2.39-5.166 4.858 0.231 0.077 0.386 0.231 0.617 0.154 0.848-2.236 2.545-3.701 4.858-4.472-0.231-0.077 0-0.617-0.308-0.54zM24.752 10.564c-0.154 0.154-0.231 0.386-0.308 0.694 2.236 0.694 3.547 2.236 4.318 4.318 0.231 0 0.386-0.077 0.617-0.154-0.771-2.39-2.313-4.010-4.627-4.858zM27.682 17.735c0-0.154 0-0.231 0-0.386-0.848-0.154-2.082-0.154-3.161-0.154-0.386 0-1.002 0.308-1.157-0.308 0.925-1.002 2.313-1.619 3.161-2.545-0.154-0.154-0.154-0.463-0.386-0.463-1.157 0.848-2.159 1.696-3.316 2.467-1.542-1.080-3.161 1.080-2.005 2.313 0.925 1.002 2.39 0.308 2.853-0.848 1.388 0.077 2.853 0.077 4.010-0.077zM22.207 18.429c-0.925 0.154-1.542-1.157-0.54-1.542 1.465-0.54 1.465 1.388 0.54 1.542zM2.622 15.113c-1.080 0-2.005 0-2.545 0 0 0.308 0 0.54 0 0.771 1.619-0.077 3.624 0.231 4.935-0.154 0.308-0.925-1.542-0.617-2.39-0.617zM4.241 18.737c0.308-0.925-1.157-0.617-2.005-0.617-0.925 0-1.774 0-2.236 0 0 0.231 0 0.463 0 0.694 1.388-0.077 3.161 0.231 4.241-0.077zM15.113 19.354c-0.231-0.077-0.231 0.154-0.386 0.077 0.54 2.622 2.313 4.627 4.781 5.475 0-0.308 0.231-0.308 0.154-0.617-1.080-0.54-2.005-1.080-2.776-1.928s-1.157-1.928-1.774-3.007zM24.443 24.443c0.077 0.154 0.154 0.308 0.154 0.463 2.467-0.848 4.010-2.467 4.781-4.935-0.231 0-0.308-0.154-0.54-0.154-0.771 2.236-2.467 3.547-4.395 4.627zM0 21.051c0 0.231 0 0.463 0 0.694 1.696 0 3.393 0 5.012 0 0-0.231 0-0.463 0-0.694-1.542-0.154-3.316 0-5.012 0zM22.439 24.058c-1.080-0.617-0.771 1.234-0.694 1.773 0.231 0 0.386 0 0.617 0 0.154-0.463 0.077-1.234 0.077-1.773z"></path>
</svg>
