<!-- Generated by IcoMoon.io -->
<svg version="1.1" xmlns="http://www.w3.org/2000/svg" width="32" height="32" viewBox="0 0 32 32">
<title>order-complete</title>
<path d="M31.253 14.242c-0.176-2.725-1.055-4.923-2.198-6.857-0.352 0.176-0.791 0.703-0.967 1.143 1.846 2.725 2.286 7.385 1.319 10.901-0.967 3.253-3.165 5.978-5.626 7.648-2.637 1.846-6.593 2.989-10.637 2.198-3.516-0.703-6.242-2.549-8.264-5.011-1.934-2.462-3.429-5.978-2.989-10.198 0.352-3.692 2.022-6.769 4.396-8.879 2.286-2.11 5.451-3.692 9.582-3.78 4.22-0.088 7.033 1.67 9.582 3.692 0.176-0.352 0.615-0.615 0.791-1.055-2.462-2.286-5.626-3.868-10.198-4.044-0.088 0-0.176 0-0.264 0-4.659 0.264-8.176 1.934-10.637 4.484-2.462 2.462-4.396 5.802-4.659 10.462 0 0.352 0 0.791 0 1.143 0.44 5.451 2.637 9.143 6.066 11.78 3.253 2.462 8.967 4.132 14.066 2.374 4.308-1.407 7.648-4.483 9.407-8.44 0.879-2.022 1.494-4.747 1.231-7.56zM10.066 14.769c-0.176-0.176-0.527-0.703-0.703-0.703s-0.791 1.055-0.879 1.055c2.286 2.11 4.483 4.22 6.769 6.33 4.747-5.802 9.67-11.429 14.418-17.143-0.352-0.352-0.615-0.615-1.055-0.879-4.483 5.363-8.967 10.725-13.626 16-1.407-1.407-3.253-3.165-4.923-4.659z"></path>
</svg>
