<!-- Generated by IcoMoon.io -->
<svg version="1.1" xmlns="http://www.w3.org/2000/svg" width="32" height="32" viewBox="0 0 32 32">
<title>pizza</title>
<path d="M0.225 31.832c-0.225-1.46 0.674-2.807 1.123-4.042 2.695-6.288 5.502-12.8 8.197-19.537 0.449-1.123 1.123-2.47 1.684-3.93 0.337-1.235 0.898-4.267 2.133-4.042 4.603 0.786 8.87 3.705 11.902 6.625 2.021 2.021 4.042 5.277 5.502 8.533 0.337 1.011 1.235 2.807 1.011 3.593s-2.695 1.347-3.93 1.796c-6.961 2.358-13.249 5.277-19.761 7.972-1.347 0.561-2.695 1.123-3.93 1.572-1.235 0.674-2.47 1.572-3.93 1.46zM13.474 1.403c-0.449 1.347-0.898 2.47-1.235 3.93 7.074 2.582 11.902 7.411 14.484 14.484 1.46-0.337 2.582-0.786 3.818-1.235-2.807-8.646-8.421-14.372-17.067-17.179zM11.677 6.456c-0.449 1.123-0.898 2.246-1.347 3.368 2.47 0 4.042 1.235 4.267 3.256 0.449 3.93-4.491 5.726-6.849 2.807-0.786 1.684-1.347 3.593-2.246 5.277 3.93-0.112 3.368 5.614-0.337 5.053-0.674-0.112-1.011-0.674-1.572-0.674-0.449 1.572-1.46 3.144-1.684 4.604 3.256-1.46 6.849-2.582 9.993-4.267-0.786-0.449-1.347-0.898-1.572-1.572-2.021-5.165 7.635-5.839 5.839-0.112 3.144-1.235 6.175-2.582 9.432-3.818-2.47-6.737-7.074-11.453-13.923-13.923zM11.453 16.112c3.481-0.674 1.796-6.512-1.684-4.828-0.561 0.898-1.011 2.021-1.347 3.144 0.561 1.235 1.684 1.909 3.032 1.684zM11.453 23.186c0.112 2.582 4.042 2.47 3.93-0.225-0.112-1.235-1.123-1.909-2.582-1.572-1.235 0.225-1.46 1.123-1.347 1.796zM6.961 23.41c-0.225-1.46-2.807-1.123-2.47 0.898 0.898 1.347 2.807 0.449 2.47-0.898z"></path>
</svg>
