<svg aria-hidden="true" style="position: absolute; width: 0; height: 0; overflow: hidden;" version="1.1" xmlns="http://www.w3.org/2000/svg" xmlns:xlink="http://www.w3.org/1999/xlink">
<defs>
<symbol id="pizza-menu-icon" viewBox="0 0 32 32">
<path d="M17.535 9.535c-2.263-1.616-4.848-2.909-7.758-3.879-1.455-0.485-2.747-0.646-4.202-0.97l-4.525 27.313 25.374-13.414c-0.646-1.131-1.455-2.263-2.263-3.394-1.939-2.263-4.202-4.202-6.626-5.657zM7.515 24.081c-0.485 0.646-1.293 0.808-1.939 0.323-0.808-0.485-0.97-1.293-0.485-1.939s1.293-0.808 2.101-0.323c0.646 0.485 0.808 1.293 0.323 1.939zM8.485 14.545c-0.97-0.646-1.131-1.778-0.485-2.747 0.646-0.808 1.778-1.131 2.747-0.485s1.131 1.939 0.485 2.747c-0.485 0.808-1.939 1.131-2.747 0.485zM16.404 21.010c-1.131 1.455-3.232 1.939-4.848 0.808-1.616-0.97-1.939-3.071-0.808-4.525s3.071-1.778 4.848-0.808c1.455 1.131 1.939 3.071 0.808 4.525zM30.949 16.646c-0.162-0.323-3.071-6.303-10.505-11.152-7.273-4.848-14.061-5.495-14.707-5.495l-0.162 3.394c0.485 0 6.303 0.646 12.929 4.849 6.303 4.364 8.889 9.535 9.212 9.859z"></path>
</symbol>
<symbol id="quote" viewBox="0 0 32 32">
<path d="M12.26 5.818c-1.039-0.935-2.493-1.662-4.26-1.766s-3.325 0.208-4.26 0.727c-1.766 0.831-3.429 3.013-3.636 5.195-0.104 1.87 0.312 3.948 1.351 5.299 1.143 1.351 3.325 2.701 5.922 2.494 0.623 0 0.935-0.312 1.766-0.208 0.623 0.623 0.519 1.662 0.312 2.39-0.208 0.831-0.416 1.766-0.727 2.286-0.727 1.143-1.974 1.87-3.221 2.286-0.519 0.104-1.351 0.208-1.662 0.416-0.312 0.623-0.312 2.597 0.312 3.013 0.312 0.208 0.831 0 1.351-0.104 2.078-0.416 3.221-1.143 4.675-2.286 2.909-2.182 4.987-5.922 5.299-10.39 0.104-1.974-0.312-3.844-0.831-5.403-0.519-1.662-1.351-3.117-2.39-3.948zM30.13 7.377c-1.351-1.766-3.013-3.117-5.714-3.325-2.494-0.208-4.26 0.519-5.506 1.662-0.935 0.831-2.078 2.494-2.286 4.156-0.104 1.766 0.208 3.74 1.143 5.091 1.039 1.558 3.429 2.909 6.13 2.805 0.519 0 1.039-0.208 1.766-0.208 0.831 0.623 0.416 1.766 0.312 2.597-0.208 0.831-0.519 1.766-1.039 2.39-0.519 0.935-1.87 1.558-2.909 1.87-0.623 0.208-1.455 0.208-1.662 0.519-0.208 0.416-0.208 2.39 0.208 2.805 0.312 0.208 1.039 0.104 1.558 0 0.623-0.208 1.143-0.208 1.558-0.416 1.558-0.519 3.429-1.974 4.571-3.117 1.039-1.039 1.87-2.494 2.597-4.052 0.623-1.662 1.143-3.636 1.143-5.61 0-2.494-0.623-5.299-1.87-7.169z"></path>
</symbol>
<symbol id="edit" viewBox="0 0 32 32">
<path d="M30.833 6.25c-0.5-0.833-1.5-1.5-2.333-2.5-1-1-1.833-2-2.667-2.5-0.333-0.167-0.833-0.333-1.167-0.333-0.167 0-0.333 0-0.333 0-1.5 0.167-2 1.167-2.833 2 2.5 2.667 5.167 5.333 7.833 8 1-1.167 2.667-2.667 1.5-4.667zM27.333 11.25c-2.333-2.333-5.167-5.167-7.167-7.167-0.667 0.5-1.167 1.167-1.833 1.667 2.667 2.833 5.333 5.5 8 8.167 0.333-0.167 0.667-0.5 1-0.833 0.333-0.167 1-0.667 1-0.833-0.167-0.167-1-1-1-1zM24.333 14.417c0-0.167-0.667-0.833-0.833-0.833 0 0-0.667 0.667-0.833 0.667-3.667 3.667-7 7.167-10.667 10.667-0.5 0.5-1 1.333-1.667 1.5-0.167 0.167-0.833 0.333-1.167 0.333-0.833 0.167-1.667 0.5-2.667 0.833-0.333 0-0.833 0.333-1.167 0.333s-1.167-1-1.333-1.167c0-0.333 0.333-1 0.5-1.5 0.333-1 0.5-1.667 0.667-2.5 0.167-0.5 0.167-1 0.333-1.333 0.167-0.667 1.167-1.167 1.667-1.667 3.667-3.667 7.5-7.5 11.167-11.167-0.333-0.667-1-1.167-1.333-1.667-4.167 3.833-8.333 8.333-12.5 12.333-0.333 0.333-0.667 0.667-0.833 0.833-0.333 0.667-0.667 1.667-0.833 2.5-0.5 1.667-1 3.167-1.5 5-0.333 1.167-1.333 3.167 0.5 3.5 0 0 0.167 0 0.333 0 2.667-0.833 5.667-1.667 8.5-2.667 0.5 0 1-0.167 1.333-0.167 0.167-0.167 0.5-0.667 0.833-1 3.833-4.167 8.333-8.167 12.333-12.167-0.167-0.167-0.5-0.333-0.833-0.667zM6.833 23.083c0.667 0 1.333 0.167 1.833 0.333 0.167 0.667 0.167 1.167 0.333 1.667 4.167-4.167 8.667-8.667 13-13-0.833-0.667-1.5-1.5-2.167-2-3.833 3.833-7.667 7.667-11.5 11.333-0.5 0.5-1 1-1.5 1.667z"></path>
</symbol>
<symbol id="store-locator-menu" viewBox="0 0 32 32">
<path d="M15.138 0c0.575 0 1.15 0 1.725 0 5.269 0.766 8.24 3.737 8.814 9.198 0 0.096 0 0.192 0 0.287-0.383 4.599-2.204 8.623-3.928 12.263s-3.641 6.994-5.748 10.252c-2.97-4.982-6.419-10.443-8.335-16.671-0.575-1.629-1.054-3.353-1.15-5.078-0.192-2.012 0.287-3.641 1.054-5.174 1.245-2.587 3.832-4.695 7.569-5.078zM11.88 6.707c-1.916 3.258 1.15 7.377 4.982 6.611 2.108-0.479 4.216-2.491 3.545-5.365-0.096-0.671-0.479-1.245-0.671-1.533-0.766-1.15-2.108-2.012-3.928-2.012-2.012 0.096-3.258 1.15-3.928 2.299z"></path>
</symbol>
<symbol id="shopping-bag-full-color" viewBox="0 0 32 32">
<path d="M21.885 7.969h-17.9l-1.594 24.031h27.218l-1.471-24.031h-5.272v-1.349c0-3.801-2.943-6.621-6.743-6.621-3.678 0-6.743 2.82-6.743 6.621v6.621h2.82v-2.575h5.395v-2.697h-5.395v-1.349c0-2.329 1.716-4.046 4.046-4.046 2.207 0 4.046 1.716 4.046 4.046v6.621h2.82v-2.575h2.82"></path>
</symbol>
<symbol id="search" viewBox="0 0 32 32">
<path d="M31.086 29.714l-6.4-6.705c1.981-2.438 3.352-5.486 3.352-8.99 0-7.771-6.095-14.019-13.562-14.019-7.619 0-13.562 6.248-13.562 14.019 0 7.619 5.943 13.867 13.562 13.867 3.048 0 5.638-0.914 7.924-2.59l6.4 6.705zM2.438 14.019c0-6.857 5.333-12.343 12.038-12.343 6.552 0 11.886 5.486 11.886 12.343s-5.333 12.19-11.886 12.19c-6.705 0-12.038-5.333-12.038-12.19z"></path>
</symbol>
<symbol id="scooter" viewBox="0 0 32 32">
<path d="M31 20.417c-0.5-2.167-2.5-3-5.167-3.167 0-1.5-0.833-2.167-1.5-3.167-1.5-2-2.5-4.167-3.333-6.833 1 0 2.167 0.333 2.5-0.333 0.333-0.5 0.167-1.667 0.167-2.167-0.167-0.5-0.833-0.5-1.333-0.667 0 0-0.167 0-0.333 0-1.333 0.333-2.5 0.5-2.667 1.667-0.667 0.333-1.167 0.667-2 1-0.5 0.167-1.667 0.5-1.667 1.167 0 0.833 1.333 0.5 1.833 0.333 0.667-0.333 1.167-0.833 1.833-1 0.667 2.833 2.333 6.833 0.667 10.167-1 1.667-3 2.333-5.833 2.333-2.333-0.167-3.167-1.167-2.833-3.833 0.167-0.5 0.333-1.167 0.167-1.5-0.5-0.5-1.667 0-2.333 0.333-2.333 0.5-5.833 0.333-7.833-0.333-0.5 1.167-1.333 3.333-1 5 0.333 0.833 1.167 1.167 1.833 1.5-1.5 3.333 0.833 6.5 3.5 6.833 2.667 0.167 5.333-1.667 5-4.833 3.5 0.333 7.5 0.167 10-0.667-0.333 1 0.167 2 1.333 1.833 0.333 2.167 2.333 3.667 4.833 3.333 3-0.333 5.167-3.833 3.5-6.833 0.167 0 0.5 0 0.667-0.167zM6 25.583c-2 0-3.333-2.167-2.167-4.167 0.5 0.167 1.167 0.333 1.833 0.5 0 0.167-0.5 0.5-0.5 0.833 0 0.5 0.167 1 0.833 1.167 0.833 0 1.167-1.167 1.667-1.5 0.333 0 0.667 0 1 0 0.167 2-1.167 3.167-2.667 3.167zM26.333 25.583c-1.167 0-2.333-1-2.667-2.167 0-0.5 0-1.333 0.5-1.667 0.833 0.5 1 2.167 2.167 2.167 0.5 0 1-0.333 1-0.833 0-1-1.333-1.333-1.333-2 0.5 0 1-0.5 1.5-0.333 1 0.167 1.5 1.333 1.5 2.333 0 1.167-1.167 2.5-2.667 2.5zM2.667 13.25c1.167 0 2.333 0 3.333 0 2.333 0 4.333 0 5.833-0.833 0.167-1.833-2.667-1.333-4.5-1.333-2.333 0-4.333-0.167-5.833 0-0.667 0.167-1.333 0.667-1.167 1.333 0 0.5 1.833 0.667 2.333 0.833z"></path>
</symbol>
<symbol id="ready-delivery" viewBox="0 0 32 32">
<path d="M3.477 22.563c0.78 0 1.561 0 1.916 0-0.142 0.497-0.071 1.206 0.071 1.632-0.497 0.142-1.135-0.213-1.277 0.284-0.213 0.497 0.71 0.355 1.135 0.355 7.166 0 14.262 0 21.499 0 0.284 0 1.206 0.213 1.206-0.355-0.071-0.497-0.922-0.142-1.277-0.284 0-0.568-0.213-1.064-0.355-1.632 0.355 0 1.206 0 2.129 0 0.78 0 1.774 0.213 1.845-0.213 0.071-0.639-0.497-0.284-1.064-0.426-0.142-7.592-3.761-13.481-10.643-14.687-0.568-0.071-1.277 0-1.064-0.639 0.142-0.355 0.426-0.142 0.993-0.213 0.071-0.071 0-0.426 0.071-0.639-1.632 0-3.264 0-4.896 0 0 0.213 0 0.355 0 0.568 0.284 0.213 1.135-0.142 1.277 0.213 0 0.851-1.277 0.639-1.916 0.78-6.528 1.561-9.933 6.741-10.217 14.687-0.497 0.071-0.993-0.213-1.064 0.284-0.071 0.568 0.851 0.284 1.632 0.284zM20.009 24.195c-4.47 0.142-9.295 0-13.907 0.071-0.142-0.426-0.355-0.922-0.142-1.419 0-0.142 0-0.213 0.142-0.284 4.541 0 9.153 0 13.765 0 0.142 0.497 0.355 1.064 0.142 1.632zM20.576 24.195c0.142-0.497 0.071-1.206-0.142-1.632 1.703 0 3.406 0 5.109 0 0.284 0.497 0.568 0.922 0.568 1.632-1.845 0-3.69 0-5.534 0zM15.539 6.457c0.497 0 0.993 0 1.49 0 0 0.213 0 0.426 0 0.639-0.497 0-0.993 0-1.49 0 0-0.213 0-0.426 0-0.639zM6.457 12.133c2.129-2.696 5.747-4.754 10.714-4.47 3.761 0.213 6.599 2.058 8.443 4.47 1.987 2.483 3.051 5.818 3.122 9.792-8.372 0-16.816 0-25.188 0 0-4.115 0.993-7.308 2.909-9.792zM17.526 13.268c-0.071-1.277-0.78-2.2-1.845-2.98 0-0.071 0-0.071-0.142-0.071 1.561 2.27-1.135 4.541-0.497 6.812 0.284 1.135 0.993 2.27 1.774 3.193-0.851-2.554 1.064-4.47 0.71-6.953zM16.035 17.667c-1.206-1.561 0.284-3.477 0.568-5.18zM8.798 12.488c-1.348 1.348-2.554 2.838-3.122 4.896 0.284 0 0.355 0.142 0.568 0.142 0.71-1.845 1.632-3.406 2.98-4.541 0-0.213-0.142-0.355-0.426-0.497zM13.268 15.042c-0.142-0.78-0.71-1.845-1.49-2.2 1.064 1.561-0.639 3.193-0.497 4.754 0.071 1.064 0.851 1.845 1.348 2.625-0.497-1.987 0.851-3.406 0.639-5.18zM12.133 17.809c-0.497-0.78 0.284-1.845 0.426-2.696 0.355 0.922-0.284 1.916-0.426 2.696zM21.215 15.184c-0.142-0.78-0.71-1.916-1.49-2.341 0.993 1.703-0.71 3.193-0.497 4.896 0.142 0.922 0.71 1.632 1.348 2.412-0.568-1.845 0.78-3.335 0.639-4.967zM20.009 17.809c-0.426-0.78 0.213-1.916 0.497-2.696 0.284 1.064-0.284 1.916-0.497 2.696zM2.058 25.472c-0.355 0-0.71 0-1.064 0-0.213 0-0.71-0.213-0.78 0.213-0.213 0.568 0.355 0.426 0.78 0.426 0.355 0 0.639 0 1.064 0 0.639 0 1.277 0 1.987 0 1.277 0 2.625 0 3.902 0 2.696 0 5.392 0 8.018 0 5.392 0 10.643 0 16.035 0 0-0.213 0-0.426 0-0.639-9.863 0-20.009 0-29.942 0z"></path>
</symbol>
<symbol id="veggie-icon" viewBox="0 0 32 32">
<path d="M1.34 0.631c-0.158-0.158 0-0.315 0.158-0.315 6.936-0.315 12.453 0.788 17.498 2.522 5.202 1.576 9.458 4.729 11.034 10.089 0 0.788 0.315 1.419 0.315 2.207 0.473 4.414-0.631 9.3-2.837 12.926-0.788 1.103-1.419 2.522-2.837 3.31-1.576-8.67-5.202-15.291-10.562-19.862 0.473 1.261 1.261 2.522 2.049 3.941 0.631 1.261 1.261 2.837 1.734 4.256 1.103 2.995 2.365 6.305 2.522 9.773 0 0.631-0.158 1.892-0.946 2.207-0.946 0.315-3.153-1.103-3.941-1.419-5.517-2.837-9.458-8.67-10.404-16.236-0.631-4.729 0.946-11.034-3.783-13.399z"></path>
</symbol>
<symbol id="burger" viewBox="0 0 32 32">
<path d="M30.649 18.286c-0.208-0.623-1.039-0.935-1.247-1.87-0.208-0.727 0.104-1.143 0-1.974 2.597-0.623 0.416-2.182 0-3.117-0.312-0.935-0.312-1.87-0.623-2.597-0.935-2.182-2.909-4.052-5.818-4.364-2.494-0.312-5.091 0-7.584 0-2.701 0-4.987-0.312-7.688 0-3.844 0.416-6.13 3.636-6.338 7.065-0.208 0.727-1.351 1.247-1.143 2.078 0.104 0.623 0.935 0.312 1.143 1.039 0 0.623 0 1.351 0 2.078-0.831 0.935-1.351 1.455-1.143 2.805 0.104 0.935 1.039 1.143 1.143 1.87 0.312 1.143-0.208 2.494 0 3.636 0.519 3.013 4.571 2.39 8.104 2.39 4.26 0 7.792 0 11.74 0 2.078 0 4.156 0.312 5.922 0 2.597-0.312 2.39-3.429 2.39-6.13 0.623-0.831 1.351-1.455 1.143-2.909zM7.792 5.506c1.974-0.208 4.883 0 7.584 0s5.507-0.208 7.688 0c3.117 0.416 4.675 3.013 5.091 5.506-8.623 0-17.039 0-25.662 0 0.519-2.701 1.974-5.091 5.299-5.506zM2.286 12.156c7.377 0 16.623 0 24.519 0 0.935 0 2.078-0.208 2.39 0.935-1.247 0.727-3.117 0.208-3.948-0.416-1.558 1.351-4.571 1.351-6.13 0-1.974 1.558-5.403 1.558-7.273 0-1.662 1.247-4.571 1.455-6.13 0-0.935 0.519-2.805 1.143-4.052 0.416 0-0.416 0.416-0.727 0.623-0.935zM28.156 14.649c0 0.623 0 1.247 0 1.87-8.623 0-17.039 0-25.662 0 0-0.623 0-1.247 0-1.87 1.351 0.104 2.182-0.208 2.909-0.623 1.455 1.143 4.883 1.351 6.234 0 1.87 1.351 5.506 1.558 7.377 0 1.455 1.143 4.779 1.351 6.234 0 0.831 0.312 1.662 0.727 2.909 0.623zM27.636 25.766c-0.831 0.727-4.156 0.519-5.922 0.519-4.468 0-8.312 0-12.675 0-1.974 0-5.091 0.208-5.922-0.416-0.935-0.623-0.623-2.805-0.727-4.26 0-0.104 0-0.312 0.208-0.312 8.519 0 16.935 0 25.558 0-0.104 1.247 0.312 3.636-0.519 4.468zM22.753 20.156c-5.195 0-9.351 0-14.442 0-1.558 0-6.13 0.312-6.857-0.519-0.312-0.519-0.312-1.455 0.519-1.87 1.143-0.519 5.403 0 7.065 0 5.091 0 8.935 0 14.026 0 2.494 0 7.169-0.831 6.338 1.662-0.416 1.143-4.883 0.727-6.649 0.727zM10.078 7.688c1.039 0.831 2.078-0.623 1.351-1.351-1.143-0.623-1.974 0.519-1.351 1.351zM8.519 7.169c-0.104-0.312-0.416-0.519-0.935-0.312-0.831 0.208-0.831 0.519-0.831 0.831 0.104 1.351 2.597 1.039 1.766-0.519zM8.623 9.662c0.104 0.519 0.727 0.831 1.558 0.519 1.247-1.558-1.87-2.182-1.558-0.519z"></path>
</symbol>
<symbol id="drinks" viewBox="0 0 32 32">
<path d="M19.735 5.129c2.787 0.669 6.467 5.798 3.122 8.251 1.003 0.892 1.672 2.007 1.226 3.568-0.223 0.334-1.226 1.226-1.226 1.338 0 0.446 1.226 1.226 1.338 1.895 0.223 1.003-0.111 1.672-0.558 2.341-0.223 0.223-0.78 0.78-0.78 0.78 0 0.223 1.226 1.449 1.338 1.895 0.558 3.010-0.223 5.798-2.899 6.244-1.561 0.111-3.791 0-5.575 0-3.791 0-7.693 0.557-8.251-2.453-0.446-2.341-0.112-4.683 1.338-5.575-0.78-1.003-1.561-1.449-1.338-3.233 0.112-0.669 1.338-1.449 1.338-1.784s-1.226-1.115-1.338-1.895c-0.223-1.449 0.446-2.23 1.338-3.122-3.010-2.676 0-7.582 3.122-8.139 0.111-2.23-0.335-4.237 1.338-4.794 1.226-0.446 3.791-0.335 5.017-0.223 2.007 0.669 1.226 2.899 1.449 4.906zM13.38 1.784c-0.223 0.78-0.111 1.895-0.223 2.899 1.784 0 3.568 0 5.24 0-0.111-1.003 0.111-2.23-0.111-2.899-1.115-0.335-3.791-0.335-4.906 0zM22.3 24.418c-0.558-0.446-2.118-0.334-2.007-1.115 0.111-0.558 1.115-0.446 1.672-0.669 1.115-0.669 1.226-2.564 0.223-3.233-0.892-0.669-2.118-0.111-1.895-1.115 0.223-0.558 1.561-0.558 2.007-0.892 1.115-0.892 0.558-2.676-0.334-3.122-0.446-0.335-1.449-0.111-1.672-0.669-0.111-0.892 1.784-0.892 2.118-1.226 1.338-1.226-0.223-4.014-1.115-4.794-2.341-2.23-9.031-2.341-11.373 0.223-1.003 1.115-2.118 3.902-0.446 4.794 0.557 0.335 1.784 0 1.672 0.892 0 0.669-1.449 0.669-2.007 1.003-0.669 0.669-0.892 2.118 0 2.787 0.446 0.446 2.007 0.446 2.007 1.003 0.111 1.003-1.115 0.446-2.007 1.226-1.003 0.78-0.557 2.564 0.446 3.122 1.226 0.669 1.561-0.111 1.561 0.78 0 0.78-2.007 0.892-2.23 1.449-0.446 0.669-0.335 3.345-0.223 3.902 0.446 2.118 3.902 1.449 7.024 1.449 3.568 0 6.467 0.558 7.136-1.338-0.111-1.561 0.558-3.456-0.558-4.46z"></path>
</symbol>
<symbol id="fries" viewBox="0 0 32 32">
<path d="M1.816 12.255c0-0.113 0-0.113 0-0.227 0.227-0.681 1.475-0.34 2.383-0.454-0.227-2.837-1.135-5.56-1.021-8.284 1.475-0.34 3.177-0.567 4.652-1.021 0.113-0.567-0.34-1.475 0.227-1.929 1.589-0.113 3.858-0.34 5.674-0.113 0.113 0.567 0.227 1.135 0.227 1.816 1.248 0 2.61 0 3.858 0 0.227-0.567-0.113-1.702 0.454-1.929 1.702 0 4.312 0 5.674 0.794 0 1.135-0.34 2.61-0.227 3.631 1.702 0.227 3.972-0.113 4.879 0.908-0.113 2.043-0.794 3.858-0.908 6.014 0.794 0.113 1.929-0.113 2.496 0.227-1.589 6.922-3.518 13.617-5.674 20.085-5.447 0.227-11.574 0.227-17.021 0-2.043-6.241-3.745-13.050-5.674-19.518zM9.078 1.702c0.454 4.426 1.021 8.965 1.362 13.504 1.021 0.681 2.156 2.043 3.745 1.816-0.681-5.106-1.021-10.44-1.702-15.546-1.248-0.113-2.496 0-3.404 0.227zM19.291 1.475c-0.681 4.879-1.135 10.667-1.248 15.773 1.362-0.454 2.496-1.021 3.291-1.816 0.227-4.652 1.021-8.965 1.248-13.617-1.248-0.113-2.156-0.34-3.291-0.34zM14.071 3.745c0.113 2.156 0.454 4.539 0.681 6.809s0.227 4.652 1.021 6.695c0.227 0 0.454 0 0.794 0 0.454-4.426 0.794-9.191 1.135-13.957-1.248 0-2.496 0-3.745 0 0 0.227 0 0.34 0.113 0.454zM9.078 12.823c-0.454-2.95-0.681-6.241-1.021-9.305-1.248 0.34-2.496 0.34-3.631 0.681 0.34 2.496 0.794 4.766 1.021 7.376 0.908 0 2.043-0.227 2.837 0.113 0.34 0.113 0.34 1.362 0.794 1.135zM22.809 13.504c0.34-0.567 0.454-1.362 1.021-1.816 0.567-0.227 1.702-0.113 2.496-0.113 0.227-1.929 0.681-3.631 0.908-5.447-1.248 0-2.383-0.34-3.745-0.34-0.113 2.723-0.681 5.333-0.681 7.716zM8.284 30.752c5.106 0 10.326 0 15.319 0 1.702-6.014 3.404-11.915 5.106-17.929-1.362 0-2.723 0-4.085 0-1.248 2.95-3.631 5.447-7.376 5.787-4.993 0.454-8.397-2.156-9.759-5.787-1.362 0.113-3.064-0.113-4.199 0.113 1.702 5.901 3.404 11.915 4.993 17.816z"></path>
</symbol>
<symbol id="pizza" viewBox="0 0 32 32">
<path d="M0.225 31.832c-0.225-1.46 0.674-2.807 1.123-4.042 2.695-6.288 5.502-12.8 8.197-19.537 0.449-1.123 1.123-2.47 1.684-3.93 0.337-1.235 0.898-4.267 2.133-4.042 4.603 0.786 8.87 3.705 11.902 6.625 2.021 2.021 4.042 5.277 5.502 8.533 0.337 1.011 1.235 2.807 1.011 3.593s-2.695 1.347-3.93 1.796c-6.961 2.358-13.249 5.277-19.761 7.972-1.347 0.561-2.695 1.123-3.93 1.572-1.235 0.674-2.47 1.572-3.93 1.46zM13.474 1.403c-0.449 1.347-0.898 2.47-1.235 3.93 7.074 2.582 11.902 7.411 14.484 14.484 1.46-0.337 2.582-0.786 3.818-1.235-2.807-8.646-8.421-14.372-17.067-17.179zM11.677 6.456c-0.449 1.123-0.898 2.246-1.347 3.368 2.47 0 4.042 1.235 4.267 3.256 0.449 3.93-4.491 5.726-6.849 2.807-0.786 1.684-1.347 3.593-2.246 5.277 3.93-0.112 3.368 5.614-0.337 5.053-0.674-0.112-1.011-0.674-1.572-0.674-0.449 1.572-1.46 3.144-1.684 4.604 3.256-1.46 6.849-2.582 9.993-4.267-0.786-0.449-1.347-0.898-1.572-1.572-2.021-5.165 7.635-5.839 5.839-0.112 3.144-1.235 6.175-2.582 9.432-3.818-2.47-6.737-7.074-11.453-13.923-13.923zM11.453 16.112c3.481-0.674 1.796-6.512-1.684-4.828-0.561 0.898-1.011 2.021-1.347 3.144 0.561 1.235 1.684 1.909 3.032 1.684zM11.453 23.186c0.112 2.582 4.042 2.47 3.93-0.225-0.112-1.235-1.123-1.909-2.582-1.572-1.235 0.225-1.46 1.123-1.347 1.796zM6.961 23.41c-0.225-1.46-2.807-1.123-2.47 0.898 0.898 1.347 2.807 0.449 2.47-0.898z"></path>
</symbol>
<symbol id="salads" viewBox="0 0 32 32">
<path d="M5.551 10.884c0.218 7.946 14.476 9.034 20.027 4.898-1.524-2.395-2.721-5.551-4.898-8.054-1.741-2.068-4.789-5.224-7.837-5.224-2.503-0.109-3.483 1.306-4.463 2.939-0.327-0.435-1.088-1.633-1.415-2.939-0.218-0.98-0.109-2.503-1.306-1.742-0.327 2.503 1.088 4.354 2.068 5.986-1.415 0.653-2.177 2.612-2.177 4.136zM8.381 7.728c2.177 1.959 4.68 4.027 7.51 5.66 0.762 0.435 1.85 1.524 2.83 0.871-0.218-1.197-1.524-1.415-2.395-1.959-1.742-1.088-3.048-2.068-4.789-3.592-0.653-0.544-2.068-1.524-2.177-2.177-0.109-1.524 2.177-3.156 4.136-2.83 0.327 0 0.871 0.218 1.088 0.435 4.245 1.85 7.619 7.619 9.361 11.211-5.007 2.721-15.238 1.85-16.98-3.374-0.544-1.524 0-3.592 1.415-4.245zM31.020 14.803c-0.762-2.177-3.701-2.612-5.986-3.374-0.109 0-0.327 0.109-0.327 0.218-0.109 0.109-0.218 0.218-0.218 0.327 0.98 1.415 5.551 1.306 5.442 3.701-0.109 0.762-1.415 1.524-2.395 2.068-5.224 2.177-13.605 2.286-19.701 0.98-2.286-0.544-5.986-1.306-5.878-3.156 0-1.959 2.612-1.197 3.048-3.048-0.762-0.762-1.742 0.109-2.395 0.544-0.762 0.544-1.524 1.088-1.742 1.85-0.762 2.939 0.762 6.422 1.524 7.946 1.197 2.286 2.395 4.245 4.136 5.66 4.136 3.483 12.517 3.483 17.088 1.088 2.395-1.197 4.245-3.592 5.442-5.769 0.871-1.633 2.83-6.204 1.959-9.034zM22.531 28.735c-4.245 1.85-10.993 1.633-14.694-0.762-2.83-1.85-5.007-6.095-5.769-10.122 0 0 0 0 0.109 0.109 6.095 3.374 20.027 3.918 26.667 0.544 0.327-0.218 0.653-0.762 0.98-0.435-1.197 4.68-3.156 8.816-7.293 10.667z"></path>
</symbol>
<symbol id="tacos" viewBox="0 0 32 32">
<path d="M31.477 18.824c-0.209-1.15-1.046-1.673-1.15-2.614-0.418-1.778 0.209-2.824-0.418-4.078-0.314-0.837-0.837-1.569-1.464-1.987-0.523-0.523-1.464-0.418-2.301-1.046-0.627-0.418-0.732-1.255-1.255-1.882-0.314-0.523-1.046-1.046-1.673-1.359-0.941-0.418-1.882-0.314-2.719-0.523-1.778-0.523-2.301-1.778-4.183-1.778-0.523 0-1.046 0-1.673 0.209-1.046 0.314-1.673 1.15-2.928 1.569-0.941 0.209-1.778 0.105-2.824 0.523-0.732 0.314-1.464 0.941-1.778 1.359-0.418 0.418-0.627 1.464-1.255 1.882-0.941 0.732-1.778 0.523-2.614 1.359-0.837 0.732-1.569 1.778-1.673 2.928-0.105 0.732 0.314 1.464 0.105 2.614-0.105 1.255-1.464 1.987-1.464 3.765 0 0.105 0 0.105 0 0.209-0.209 1.569 1.046 2.301 1.359 3.451 0.418 1.987-0.418 3.869 1.464 4.497 1.464 0.523 4.392 0.105 6.484 0.105 4.392 0 8.261 0 12.967 0 2.405 0 5.124 0.418 6.484-0.105 1.882-0.627 1.15-2.091 1.569-4.392 0.105-1.359 1.464-2.405 0.941-4.706zM1.673 20.288c-0.105 1.046-0.314-0.627-0.209-1.359 0.209-0.523 0.627-0.941 0.732-1.046 0.209-0.418-0.418 1.778-0.523 2.405zM4.601 10.876c0.627-0.314 1.359-0.314 1.987-0.837 0.732-0.523 1.046-1.882 1.987-2.614 1.046-0.732 2.614-0.627 3.66-0.941 1.673-0.523 2.614-2.405 5.124-1.464 0.837 0.314 1.464 1.15 2.301 1.464 1.569 0.523 3.033 0.209 3.974 1.255 0.732 0.732 0.941 1.882 1.569 2.301 0.627 0.523 1.569 0.418 2.51 1.046 1.359 1.046 1.673 3.033 1.255 5.124-2.405-4.392-6.379-8.261-12.758-8.261-6.693 0-10.876 3.765-13.281 8.366-0.523-2.405 0-4.497 1.673-5.438zM28.863 26.667c-5.961 0.418-12.758 0.209-19.451 0.209-1.569 0-5.542 0.418-6.274-0.209-0.523-0.418-0.314-2.091-0.314-2.614 0-0.837-0.105-2.091 0-2.824 0.523-6.797 6.065-11.922 12.863-12.026 7.216-0.105 12.967 5.229 13.49 12.026 0.209 1.778 0.105 3.556-0.314 5.438zM30.431 20.601c-0.314-0.837-0.314-1.987-0.837-2.719 0.523-0.209 0.941 1.569 0.837 2.719zM10.98 18.51c-0.105-0.627-0.523-1.15-1.464-1.046-0.732 0.209-1.15 0.627-1.15 1.046-0.209 2.091 2.824 1.778 2.614 0zM6.588 20.288c-0.837 0-1.15 0.314-1.15 0.941-0.314 2.196 2.719 1.778 2.405-0.105-0.105-0.523-0.418-0.941-1.255-0.837zM9.83 22.065c-1.673 0.627-0.314 2.405 0.627 2.301 1.359 0 1.673-3.137-0.627-2.301z"></path>
</symbol>
<symbol id="wraps" viewBox="0 0 32 32">
<path d="M6.654 10.159c-0.203 1.829 0.203 3.556 0.305 5.181 0.305 3.251 0.711 6.4 1.219 9.752 0.305 2.743 0.203 5.384 2.336 6.4 1.321 0.508 3.657 0.406 5.689 0.508 3.149 0 5.994-0.203 7.010-2.133 0.508-1.016 0.61-2.743 0.813-4.368 0.711-4.267 1.321-10.159 1.524-14.425 0 0 0-0.102 0-0.203-0.102-10.87-17.879-10.463-18.895-0.711zM9.803 6.197c2.743-2.743 9.041-2.946 11.886-0.711 1.117 0.711 2.844 2.743 1.422 4.267-0.711-1.524-2.032-2.946-4.267-2.54-1.117-0.914-2.844-2.032-4.775-1.422-0.102 0.406 0 0.914 0.203 1.219-2.641 0.406-4.267 1.727-5.384 3.657-1.727-1.016-0.203-3.454 0.914-4.47zM14.679 10.159c1.829 0.508 0.914-2.337 0.711-3.251 2.235 0 2.743 1.829 3.759 3.048 0.406 0 0.406-0.203 0.711-0.406 0.102-0.711-0.305-0.711-0.305-1.321 1.422 0.102 2.133 0.914 2.54 2.235-2.235 0.914-5.283 1.016-6.806 2.743-1.524-0.914-3.454-1.422-5.283-1.93 0.813-1.727 2.133-2.946 4.571-3.048 0.102 0.508-0.102 1.524 0.102 1.93zM9.905 29.46c-0.508-1.016-0.406-2.844-0.711-4.368-0.508-4.267-1.219-9.752-1.422-13.714 1.829 1.321 4.673 1.625 6.705 2.743-2.743 4.064-2.844 13.308 0.203 16.762-1.829-0.203-3.962 0.102-4.775-1.422zM22.806 25.092c-0.203 1.625-0.305 4.064-1.016 4.876-1.016 1.117-3.149 0.61-4.978 0.914-3.556-2.032-4.165-8.432-2.54-13.308 0.406-1.524 1.117-3.251 2.032-4.064 2.032-1.727 6.095-1.016 7.721-3.149 0.508 3.352-0.508 10.565-1.219 14.73zM16.711 16.965c-1.321 0.61-0.508 2.337 0.61 2.235 1.422-0.102 1.321-2.946-0.61-2.235zM18.844 20.419c-1.524 0.508 1.016 1.93 0.711 0.406-0.102-0.406-0.406-0.508-0.711-0.406z"></path>
</symbol>
<symbol id="add-to-cart" viewBox="0 0 32 32">
<path d="M28.177 8h-5.294v-1.294c0-3.765-2.941-6.706-6.706-6.706s-6.824 2.941-6.824 6.706v6.706h2.706v-2.706h5.412v-2.824h-5.412v-1.294c0-2.235 1.765-4 4.118-4 2.235 0 4 1.765 4 4v6.706h2.706v-2.706h2.941l1.176 18.706h-21.529l1.059-18.706h0.118v-2.706h-2.588l-1.647 24.118h27.176z"></path>
</symbol>
<symbol id="arrow-down" viewBox="0 0 32 32">
<path d="M17.218 26.64c-0.65 0-1.3 0-1.949 0-0.812 0-1.137-0.812-1.624-1.299-3.736-4.386-7.797-8.609-11.533-12.995-0.325-0.325-0.65-0.65-0.975-0.975-0.487-0.487-0.975-0.812-1.137-1.787 0-0.162 0-0.162 0-0.325 0.325-0.975 0.975-1.624 1.462-2.112 0.487-0.812 0.975-1.624 1.787-1.787 0 0 0 0 0.162 0 0.65 0.162 0.975 0.487 1.3 0.975 2.599 3.086 5.198 5.848 7.959 8.772 0.487 0.65 0.975 1.137 1.462 1.624s1.137 0.975 1.787 1.137c0.812 0.162 1.624-0.162 2.112-0.65 0.487-0.65 0.975-1.137 1.462-1.787 2.599-2.924 5.198-5.685 7.959-8.772 0.325-0.325 0.487-0.812 0.975-0.975 0.812-0.325 1.299 0.162 1.624 0.812 0.487 0.487 0.812 0.975 1.137 1.462s0.812 0.812 0.812 1.462c0 0.162 0 0.325 0 0.325-0.162 0.812-0.487 1.137-0.975 1.787-3.898 4.386-7.635 8.609-11.533 12.832-0.325 0.325-0.487 0.65-0.812 1.137-0.487 0.65-0.65 0.975-1.462 1.137z"></path>
</symbol>
<symbol id="likes-post" viewBox="0 0 32 32">
<path d="M18.578-0c0.264 0 0.529 0 0.793 0 2.248 0.661 3.967 4.496 2.777 7.537-0.529 1.719-1.719 2.645-2.116 3.835 1.058 0.529 2.645 0.264 3.967 0.264 1.455 0 3.041 0 4.099 0.397 2.116 0.661 3.438 3.967 1.719 5.818 1.322 1.455 0.793 3.702-0.397 4.76 0.926 1.587-0.132 3.306-0.926 4.231 1.322 4.628-5.289 4.76-8.992 5.157-0.529 0-1.058 0-1.587 0-3.306-0.264-5.686-1.455-8.992-1.587-0.661 0.926-2.248 0.793-4.231 0.793-0.926 0-2.248 0.132-2.777-0.132-1.455-0.529-1.322-2.248-1.322-4.496 0-2.116 0-4.364 0-6.479 0-1.058-0.132-2.38 0.132-3.174 0.529-1.587 1.983-1.322 3.967-1.322 1.058 0 1.983-0.132 2.777 0 0.529 0 0.926 0.397 1.322 0.397 1.851-1.322 1.851-3.57 3.041-5.421 0.397-0.661 1.058-1.455 1.587-2.116 0.661-0.529 1.455-1.058 1.851-1.719 0.529-0.793 0.793-1.719 1.058-2.777 0.397-1.851 0.397-3.702 2.248-3.967zM18.578 30.149c1.587 0 3.041-0.264 4.496-0.529 1.19-0.264 3.438-0.529 3.57-1.455 0.132-0.397-0.264-1.19-0.132-1.851 0.132-0.793 1.322-1.587 1.322-2.248 0-0.529-0.529-1.19-0.529-1.719 0.132-0.926 1.455-1.587 1.455-2.38 0-0.529-1.058-1.322-0.926-2.116 0-0.661 0.926-1.587 0.926-2.248 0-0.793-0.926-1.19-1.19-1.719-1.983-0.397-4.76 0-7.008-0.132-1.19-0.132-2.645-0.926-2.645-1.983-0.264-1.851 1.851-3.041 2.38-5.025 0.529-1.719-0.132-3.57-1.19-4.76 0 0 0 0-0.132 0s-0.132 0.132-0.132 0.132c-0.397 2.116-0.661 3.835-1.455 5.289-0.926 1.587-2.645 2.38-3.702 4.099-0.529 0.793-0.661 2.116-1.19 3.041-0.397 1.058-0.926 1.851-1.587 2.512-0.264 0.397-1.322 0.793-1.455 1.322s0 1.719 0 2.512c0 2.645 0 5.157 0 7.669 3.306-0.132 5.686 1.587 9.124 1.587zM2.578 29.223c1.587 0 3.174 0 4.76 0 0-3.835 0-7.802 0-11.636-1.587 0-3.041 0-4.76 0 0 3.835 0 7.802 0 11.636z"></path>
</symbol>
<symbol id="load-more-icon" viewBox="0 0 32 32">
<path d="M7.218 7.218c1.804-2.165 4.692-4.090 9.023-4.090 4.211 0 7.218 2.165 9.383 4.812-1.083 0-1.925 0-3.128 0-0.962 0-2.406-0.12-2.526 0.602-0.361 1.564 2.647 1.083 3.85 1.083 1.805 0 3.128 0 4.451 0 0-1.925 0-4.451 0-6.496 0-1.083 0.241-2.526-0.842-2.286-0.962 0-0.602 1.684-0.602 3.008 0 1.203 0 2.286 0 3.128-2.887-4.211-9.865-6.977-16.12-4.090-3.729 1.684-6.496 4.932-7.699 9.383-0.241 0.722-1.203 4.571 0.241 4.571 0.962-0.12 0.722-1.564 0.842-2.526 0.361-3.128 1.684-5.534 3.128-7.098zM28.872 15.158c-0.722 0.12-0.481 1.083-0.602 1.925-0.241 2.767-1.323 5.053-2.647 6.977-1.444 1.805-3.008 3.008-5.534 3.97-5.173 1.805-10.707-0.241-13.233-4.090 1.083 0 2.045 0 3.248 0 1.083 0 2.526 0.241 2.286-0.962-0.12-0.962-2.647-0.602-3.85-0.602-1.564 0-3.008 0-4.451 0 0 1.564 0 3.008 0 4.692 0 1.323-0.361 4.090 0.722 4.090 1.083 0.12 0.722-1.444 0.722-2.526 0-1.323 0-2.406 0-3.609 3.008 3.97 9.383 6.977 15.88 4.331 4.211-1.805 7.459-5.654 8.301-11.188 0-1.203 0.481-3.248-0.842-3.008z"></path>
</symbol>
<symbol id="arrow-left" viewBox="0 0 32 32">
<path d="M0 17.156h1.244v1.067h1.067v1.244h1.244v1.067h1.067v-3.378h27.378v-2.311h-27.378v-3.378h-1.067v1.067h-1.244v1.244h-1.067v1.067h-1.244z"></path>
</symbol>
<symbol id="arrow-left-slider" viewBox="0 0 32 32">
<path d="M10.988 15.55c0 0.129 0 0.129 0 0.257 0 0 0 0 0 0 0 0.386 0.129 0.643 0.257 0.9l7.325 14.394c0.386 0.771 1.028 0.9 1.671 0.514 0.514-0.257 0.771-1.028 0.514-1.671l-7.068-14.008 7.068-13.88c0.257-0.643 0-1.414-0.514-1.799-0.643-0.257-1.285 0-1.671 0.514l-7.325 14.522c-0.129 0.129-0.257 0.129-0.257 0.257z"></path>
</symbol>
<symbol id="arrow-right" viewBox="0 0 32 32">
<path d="M32 14.844h-1.244v-1.067h-1.067v-1.244h-1.244v-1.067h-1.067v3.378h-27.378v2.311h27.378v3.378h1.067v-1.067h1.244v-1.244h1.067v-1.067h1.244z"></path>
</symbol>
<symbol id="map-marker" viewBox="0 0 32 32">
<path d="M26.648 9.239c-0.338-1.915-1.014-3.493-2.028-4.732-1.803-2.479-5.070-4.507-9.239-4.282-2.028 0.113-3.831 0.789-5.183 1.577-2.479 1.577-4.732 4.507-4.958 8.113-0.113 2.028 0.338 3.831 0.789 5.746 1.577 5.634 4.958 10.479 8.338 14.648 0.451 0.563 1.127 1.69 1.69 1.69s1.239-1.239 1.69-1.69c0.563-0.676 1.014-1.352 1.465-1.916 2.817-3.831 5.634-8.338 6.986-13.183 0.451-1.803 0.676-3.944 0.451-5.972zM24.732 14.873c-1.69 6.197-5.408 10.93-8.789 15.324-3.155-3.831-6.31-8.225-8.338-13.521-0.563-1.69-1.127-3.831-1.127-5.972 0-2.704 1.127-4.845 2.592-6.31 1.352-1.465 3.268-2.704 5.972-2.817 4.056-0.338 6.761 1.577 8.451 3.831 0.789 1.127 1.577 2.366 1.803 4.169s-0.113 3.606-0.563 5.296zM15.718 6.873c-2.028 0.113-3.268 1.239-3.944 2.366-0.563 1.127-0.676 3.042-0.113 4.169 0.451 1.014 1.239 1.69 2.141 2.141 4.056 2.028 8.225-1.915 6.423-5.972-0.563-1.465-2.141-2.817-4.507-2.704zM16.507 14.761c-2.366 0.338-4.507-1.69-3.831-4.169 0.338-1.014 1.127-2.254 2.817-2.479 2.028-0.113 3.718 1.239 3.831 2.93 0.225 2.141-1.239 3.493-2.817 3.718z"></path>
</symbol>
<symbol id="mail-icon" viewBox="0 0 32 32">
<path d="M31.728 11.166c0-1.498 0.272-3.677-0.136-4.63-0.409-1.089-1.634-1.906-2.86-1.906h-25.328c-1.77 0.136-2.451 0.817-2.996 1.906-0.408 1.226-0.136 3.132-0.136 4.63v9.396c0 1.634-0.272 3.404 0.136 4.63 0.545 2.179 2.451 2.179 5.447 2.179h20.426c1.226 0 2.451 0 3.268-0.136 0.817-0.272 1.634-0.817 1.906-1.634 0.409-0.953 0.272-3.132 0.272-4.63zM28.596 24.374h-25.055v-16.885c0 0 0-0.136 0-0.136h25.192v17.021zM25.872 11.847c0.409-0.272 1.226-0.681 1.226-0.953 0.409-0.817-0.272-1.906 0-2.723-3.677 1.906-7.217 4.221-11.030 6.264-3.677-2.179-7.353-4.085-11.030-6.264v2.86c3.677 2.043 7.353 4.221 11.166 6.264 2.86-1.77 6.4-3.677 9.668-5.447z"></path>
</symbol>
<symbol id="marker-hand-drawned" viewBox="0 0 32 32">
<path d="M15.739 0c0.627 0 1.15 0 1.673 0 5.229 0.523 8.261 3.242 8.889 8.366 0 0.627 0 1.15 0 1.778-1.255 6.588-4.183 11.817-6.902 17.046-0.837 1.673-1.569 3.66-3.242 4.81-0.105 0-0.209 0-0.418 0-1.359-1.359-2.301-3.033-3.137-4.706-0.941-1.673-1.778-3.451-2.614-5.229-1.569-3.451-3.556-6.902-4.288-11.19 0-0.523 0-1.15 0-1.673 0.837-5.647 4.497-8.366 10.039-9.203zM23.477 4.288c-0.418-0.523-1.15-1.15-1.359-1.673-0.523-0.837-1.255-1.046-2.301-1.359-4.392-1.255-9.098 0.314-11.19 2.719-0.941 1.15-1.987 3.033-2.091 5.020-0.209 2.51 0.837 4.392 1.778 6.17 1.673 3.346 3.346 6.274 5.020 9.307 0.837 1.569 1.569 3.137 2.614 4.392 0.314-0.209 0.523-0.523 0.523-0.837-0.418-0.837-1.255-1.359-1.673-2.196 1.046-0.523 1.255 1.255 2.196 1.569 0.418-1.359-1.778-1.778-1.464-2.928 0.941 0 1.359 1.673 2.091 1.882 0.732-0.732-0.209-1.359-0.732-1.987-0.523-0.523-1.15-0.941-0.941-1.464 0.627 0 1.046 0.627 1.359 1.15 0.418 0.418 0.732 0.941 1.255 1.359 0.523-1.359-0.418-1.987-1.046-2.824-0.418-0.627-1.046-1.15-1.255-1.673 0.837-0.314 1.15 0.732 1.569 1.255 0.418 0.627 0.941 1.255 1.359 1.673 0.523-0.523 0-0.941-0.418-1.359-0.627-0.837-1.569-1.778-1.987-2.614 0.627-0.627 1.359 0.627 1.882 1.255 0.523 0.732 0.837 1.464 1.464 1.569 0.105-0.209 0-0.732 0.105-0.837-0.418-0.732-0.941-1.255-1.359-1.882-0.523-0.523-1.046-1.15-1.359-1.882 0.105 0 0.105-0.209 0.209-0.209 0.732 0.314 1.15 1.046 1.569 1.673s0.732 1.359 1.359 1.778c0.314-0.105 0.314-0.627 0.523-0.941-0.941-1.569-2.196-2.824-3.137-4.183 0.523-0.523 0.732 0.209 1.046 0.418 0.837 1.15 1.673 2.405 2.405 3.346 0-0.314 0.209-0.523 0.209-0.941-0.732-1.15-1.569-2.301-2.405-3.346-0.209-0.314-0.732-0.523-0.627-1.15 0.523 0 0.837 0.627 1.046 0.941 0.941 1.15 1.673 2.301 2.614 3.242 0.314-1.15-0.627-1.987-1.255-2.824s-1.359-1.673-1.569-2.614c0.418 0 0.732 0.523 0.941 0.941 0.837 1.046 1.464 2.405 2.301 3.451 0.105-0.523 0.627-1.046 0.627-1.569 0-0.209-0.523-0.732-0.732-1.046-0.837-1.046-1.987-2.196-2.301-3.137 0.418-0.418 0.837 0.314 1.15 0.627 0.837 0.941 1.569 2.301 2.301 2.824 0.209-0.209 0.314-0.627 0.418-0.941-0.837-1.046-1.882-2.301-2.719-3.242-0.314-0.314-0.837-0.837-0.523-1.255 0.837 0.314 1.359 1.15 1.882 1.882s1.046 1.569 1.778 2.091c0.105-0.837-0.418-1.255-0.837-1.882-0.732-0.941-1.359-1.673-2.091-2.51-0.209-0.314-0.941-0.941-0.418-1.255 1.569 1.15 2.301 3.137 3.765 4.497 0.627-1.255-0.209-1.673-0.732-2.405-0.732-0.837-1.359-1.673-2.091-2.405-0.418-0.418-0.837-0.837-0.941-1.255 0.627-0.105 0.837 0.523 1.15 0.837 1.15 1.15 2.091 2.405 3.242 3.451 0-1.046-0.732-1.569-1.359-2.301-0.732-0.941-1.569-1.778-2.301-2.719-0.418-0.523-0.837-0.837-1.15-1.464 0.418-0.732 1.255 0.627 1.464 0.941 0.837 0.941 1.464 1.673 2.196 2.614 0.314 0.418 0.627 0.941 1.046 1.15 0.105-1.464-0.627-1.987-1.359-2.719-1.359-1.359-2.719-2.719-3.869-3.974 0.105-0.209 0.105-0.209 0.314-0.314 0.941 0.523 1.673 1.359 2.301 2.196 0.732 0.732 1.255 1.673 2.091 2.405 0.105-1.255-0.837-1.778-1.569-2.51zM9.987 4.915c-0.105 0.732-0.732 1.15-1.15 1.673-0.523 0.627-1.046 1.464-0.941 2.614 0.105 0.523 0.209 1.15 0.418 1.673 0.105 0.523 0.418 1.15 0 1.569-0.837-0.209-1.046-1.359-1.046-2.196-0.209-1.673 0.209-2.928 0.837-4.078 0.523-0.523 1.046-1.569 1.882-1.255zM15.32 4.915c1.359-0.105 2.614 0.523 3.033 1.882 0.418 1.255-0.209 3.137-1.464 3.451-1.255 0.523-2.928-0.105-3.556-0.837-1.255-1.778 0-4.288 1.987-4.497zM14.484 7.529c-0.209 0.837 0.418 1.882 0.941 1.987 1.987 0.523 3.137-3.137 0.523-2.928-0.627 0.105-1.359 0.523-1.464 0.941z"></path>
</symbol>
<symbol id="arrow-right-slider" viewBox="0 0 32 32">
<path d="M21.012 16.45c0-0.128 0-0.128 0-0.257 0 0 0 0 0 0 0-0.386-0.128-0.643-0.257-0.9l-7.325-14.394c-0.386-0.771-1.028-0.9-1.671-0.514-0.514 0.257-0.771 1.028-0.514 1.671l7.068 14.008-7.068 13.88c-0.257 0.643 0 1.414 0.514 1.799 0.643 0.257 1.285 0 1.671-0.514l7.325-14.522c0.128-0.128 0.257-0.128 0.257-0.257z"></path>
</symbol>
<symbol id="best-deals-menu" viewBox="0 0 32 32">
<path d="M32 4.593c0-1.072 0-2.45-0.153-3.215-0.306-0.766-1.072-1.225-2.144-1.378-3.828 0-7.655 0-11.33 0-1.837 0-2.45 1.072-3.522 2.144-4.134 4.134-8.421 8.421-12.555 12.555-0.919 0.919-2.144 1.837-2.297 3.062 0 0.153 0 0.153 0 0.153 0.153 1.072 0.766 1.531 1.378 2.144 3.522 3.522 7.043 6.89 10.565 10.565 0.612 0.612 1.225 1.378 2.144 1.378 1.072 0 1.837-1.072 2.603-1.837 4.44-4.593 8.574-8.727 13.014-13.014 0.766-0.766 1.837-1.531 2.144-2.45 0.153-0.919 0.153-1.99 0.153-3.215 0-2.45 0-4.44 0-6.89zM23.12 13.627c-2.603 0-4.593-2.144-4.593-4.746 0-2.45 1.99-4.593 4.593-4.593 2.45 0 4.593 2.144 4.593 4.593 0 2.603-2.144 4.746-4.593 4.746z"></path>
</symbol>
<symbol id="master-chef" viewBox="0 0 32 32">
<path d="M21.842 3.666c-0.993-1.757-2.673-2.826-4.964-3.284h-1.68c-2.444 0.458-4.048 1.68-5.117 3.36-0.993-0.458-1.757-0.993-2.979-1.146-3.742-0.382-6.492 1.909-7.103 5.27v1.527c0.535 2.368 2.291 3.59 4.277 4.582 1.146 0.535 2.673 0.687 3.437 1.451 1.604 1.375 0.916 4.277 1.222 6.95 3.131 1.986 11.074 1.986 14.129 0 0.153-3.208 0-5.957 1.68-7.179 2.597-1.986 7.255-1.909 7.179-6.492v-0.764c-0.153-4.811-6.263-6.721-10.081-4.277zM23.446 15.274c-1.146 1.451-1.069 4.277-1.069 6.721-3.284 1.375-9.394 1.375-12.754 0 0.076-2.826 0.153-6.186-1.604-7.408-0.764-0.458-1.909-0.764-2.749-1.146-1.986-0.84-4.811-2.138-4.43-5.422 0.305-3.742 5.346-6.263 8.936-3.513-0.84 1.451-0.687 4.048 0 5.652 0.153 0.458 0.687 1.68 1.222 1.451 0.535-0.306-0.611-1.833-0.687-2.062-1.451-3.895 1.222-7.943 5.041-8.325 3.131-0.382 5.041 1.375 6.263 3.513 3.666-2.673 9.317-0.993 9.547 3.284 0.229 5.422-5.499 4.353-7.714 7.255zM24.057 12.22c-2.291 0.535-3.666 1.986-3.666 4.735 0.153 0.153 0.535 0 0.764 0.076 0-2.444 1.222-3.59 3.055-4.124 0.076-0.382-0.229-0.382-0.153-0.687zM13.060 20.62c-0.993 0.229-2.444-0.993-2.368 0.458 0.764 0.076 1.451 0.305 2.215 0.382 0.153-0.153 0.076-0.535 0.153-0.84zM19.399 20.62c0 0.382 0.153 0.382 0.153 0.687 0.764 0 1.451-0.153 2.062-0.382 0-0.305-0.153-0.382-0.153-0.611-0.84 0-1.375 0.229-2.062 0.305zM14.816 21.613h2.902v-0.84h-2.902zM16.955 27.036c-0.229 0-0.687 0.229-0.916 0.229-0.611 0-1.146-0.458-1.68-0.458-2.138 0-3.895 2.444-6.721 1.298 1.222 1.68 5.804 3.513 8.248 1.604 0.535 0.458 1.298 0.764 2.138 0.916h1.527c2.062-0.458 3.666-1.222 4.888-2.52-3.131 1.222-4.735-1.527-7.485-1.069zM17.107 29.556c-0.382-0.076-0.764-0.687-1.146-0.764-0.458 0-0.916 0.611-1.298 0.764-1.527 0.687-3.131 0.153-4.353-0.535 1.833-0.305 3.666-2.215 5.652-0.916 2.062-1.298 3.742 0.687 5.728 0.916-1.298 0.764-3.055 1.222-4.582 0.535z"></path>
</symbol>
<symbol id="menu-icon" viewBox="0 0 32 32">
<path d="M0 3.728v4.932h32v-4.932zM0 18.409h32v-4.932h-32zM0 28.272h32v-4.932h-32z"></path>
</symbol>
<symbol id="best-quality" viewBox="0 0 32 32">
<path d="M23.385 8.846c0.385 0.538 1.077 0.923 1.615 1.231 0.615 0.385 1.308 0.846 2 0.846 0.308-0.769-0.769-0.923-1.462-1.308s-1.462-1.308-2.077-1.077c0.077 0.154-0.077 0.154-0.077 0.308zM22.692 10c0 0.077-0.077 0.154-0.231 0.231 0.231 0.692 1.154 0.923 1.769 1.308s1.308 1.231 2 0.692c-0.846-1.077-2.231-1.615-3.538-2.231zM23.692 12.538c-0.615-0.385-1.154-0.846-1.769-1.077-0.077 0-0.077 0-0.154 0-0.538 0.615 1 1.308 1.615 1.615 0.692 0.462 1.385 1.077 1.923 0.692-0.154-0.692-1.077-0.846-1.615-1.231zM3.769 20.154c-0.231 0.077-0.077 0.462-0.154 0.692 2 0.154 4.615 0.154 6.615 0 0-0.154 0-0.385 0-0.615-2.077-0.154-4.385 0-6.462-0.077zM9.308 23.769c-0.615 0.077-0.846 0.308-1 0.385-1.385 1.769 1.769 2.846 2.308 1.385 0.308-1.077-0.538-1.846-1.308-1.769zM8.846 25.385c-0.385-0.692 0.462-1.231 1-0.769 0.385 0.692-0.462 1.308-1 0.769zM15.385 23.769c-1.538 0.154-1.692 2.538 0 2.538 1.769 0.154 1.692-2.692 0-2.538zM15 25.385c-0.385-0.692 0.462-1.231 0.923-0.769 0.385 0.692-0.462 1.308-0.923 0.769zM21.231 23.846c-0.615 0.231-0.846 0.692-0.846 1.077-0.077 1.923 2.538 1.692 2.538 0.154 0-0.846-0.538-1.615-1.692-1.231zM21.231 25.538c0-0.154-0.077-0.231-0.154-0.308 0.154-2.077 2.385 0.692 0.154 0.308zM12.462 26.154c-2 0.077-1.462 2.615 0.077 2.538 1.769-0.077 1.308-2.615-0.077-2.538zM11.923 27.769c-0.385-0.692 0.462-1.231 0.923-0.769 0.385 0.692-0.385 1.231-0.923 0.769zM19 26.154c-0.231-0.077-0.462-0.077-0.846 0.077-1.615 0.538-0.538 2.846 0.846 2.385 1.462-0.385 0.846-2.308 0-2.462zM19 27.846c-0.231 0.077-0.615 0.077-0.846 0 0-0.154 0-0.231-0.154-0.308-0.077-0.692 0.538-0.923 1.077-0.692 0.154 0.308 0.154 0.692-0.077 1zM31.923 4.615c0.077-0.538-1.385-2-1.692-2-0.538-0.077-1.077 0.692-1.462 1-0.538 0.462-0.923 0.846-1.308 1.231-0.231-0.846 0.692-1.692 0.538-2.462-0.231-0.692-1.462-0.538-2.154-0.846 0 0 0 0 0-0.077-0.154 0-0.308 0-0.538 0-0.615 1.077-0.692 2.692-1.231 3.923 0 0.308-0.462-0.308-0.692-0.231-1.769 2.769-3.615 5.846-5.231 8.615-0.231 0.385-0.385 1.077-0.923 1.077-0.462-2.615 0.154-6.154-0.308-8.692-0.923-0.308-0.692 1.231-0.692 2 0 2.231 0 4.923 0 6.692-0.538 0-1.154 0-1.769 0-0.077-2.846 0.231-6.077-0.154-8.692-0.923-0.308-0.615 1.308-0.615 2 0 2.231 0.077 5.154-0.154 6.615-0.308-3.923-2.923-6.538-6.615-6.308-3.231 0.308-5.538 2.846-5.615 6.385-0.538 0.154-1.231 0-1.308 0.538 0 0.154 0 0.308 0 0.385 0.231 0.846 0.308 2.231 0.615 3.769 0.308 1.846 0.231 3.846 2.538 3.231 0.154 0.846 0.385 2.154 0.615 3.462 0.231 1.769 0.077 3.923 1.308 4.308 1.846 0 3.692 0 5.462 0 0.615 0 1.231 0 1.769 0 4.385 0 8.769 0 13.077 0 1-0.231 0.923-1.231 1.077-2.462 0.231-1.769 0.615-3.692 0.769-5.308 2.308 0.615 2.154-2 2.462-3.692 0.231-1.615 0.538-2.846 0.462-3.923-0.462-0.692-2.154-0.231-3.308-0.385 1-1.846 2.077-3.615 3.077-5.385 0.231-0.308-0.077-0.462-0.077-0.769 0.462-0.462 1.154-0.769 1.462-1.385 0-0.615-0.538-0.769-0.769-1.154 0.308-0.692 1.308-0.615 1.385-1.462zM7.615 9.231c3 0.154 4.923 2.385 5 5.615-1.154 0.154-2.308-0.154-3.615 0-0.231-0.462-0.385-1.231-1.077-1.385-1-0.231-1.769 0.385-1.846 1.385-1.462 0-2.846 0.154-4.077 0 0-3.462 2.385-5.769 5.615-5.615zM8.154 14.846c-0.462 0-0.923 0.077-1.385 0-0.077-0.846 1.538-0.846 1.385 0zM25.385 29.769c-6.692 0-14.231 0.077-20.385 0-0.462-2.231-0.692-4.692-1.077-6.923 7-0.077 15.308 0.077 22.615 0-0.385 2.308-0.615 4.692-1.154 6.923zM29.538 15.615c-0.385 2.154-0.692 4.385-1.077 6.462-8.538 0-18.385 0.077-26.692 0-0.385-2.154-0.692-4.308-1.077-6.385 3.846-0.308 8.385-0.077 13-0.154 0.077 0.769-0.231 1.923 0.077 2.308 1.231 0.231 0.462-1.538 0.692-2.308 0.538 0 1.154 0 1.769 0 0.077 0.769-0.231 1.923 0.154 2.308 1.154 0.231 0.385-1.538 0.615-2.308 4.308 0.154 8.154 0 12.538 0.077zM25.923 14.846c-2.385 0.077-4.769-0.154-7.462 0.077 1.385-2.923 3.462-5.846 5.077-8.846 2 1 3.769 2.154 5.692 3.231-1.077 1.923-2.154 3.769-3.308 5.538zM30.462 7.154c-0.308 0.538-0.846 0.846-1.385 1.231-1.462-0.769-2.923-1.615-4.308-2.538 0.231-1.308 0.615-2.462 0.923-3.615 0.538 0.077 1 0.231 1.538 0.385-0.154 0.846-1.154 2.846 0.077 2.923 1 0.154 1.923-1.769 2.692-2.077 0.462 0.231 0.769 0.692 1.077 1.154-0.846 0.462-1.846 1.769-0.615 2.538z"></path>
</symbol>
<symbol id="on-time" viewBox="0 0 32 32">
<path d="M24.366 6.863c0.308-0.463 0.386-2.082-0.154-2.39-1.465 0-2.93 0-4.472 0-0.308 0.386-0.231 1.619-0.154 2.313 1.311 0.308 3.393 0.154 4.781 0.077zM20.202 5.166c1.234 0 2.467 0 3.701 0 0 0.386 0 0.694 0 1.080-1.234 0-2.467 0-3.701 0 0-0.308 0-0.694 0-1.080zM28.993 8.096c-0.771-0.386-1.388-0.848-2.159-1.157-0.077 0.231-0.231 0.386-0.231 0.694 0.771 0.231 1.311 0.771 2.005 1.080 0.077-0.308 0.308-0.308 0.386-0.617zM15.422 8.713c0.617-0.308 1.080-0.771 1.851-1.002 0-0.308-0.154-0.386-0.231-0.617-0.771 0.308-1.619 0.617-2.005 1.311 0.077 0.077 0.077 0.308 0.386 0.308zM22.67 7.634c-4.395-0.308-7.788 2.236-9.33 4.935-0.231 0.231-0.231 0.771-0.694 0.925-0.771-0.54 0.154-0.463 0-1.157-1.234 0.077-2.159 0.771-3.007 1.465-1.311 1.388-2.159 3.701-1.696 5.937 0.463 2.545 2.545 4.549 5.089 5.012 0.54 0.154 1.311-0.077 1.851 0.154 0.54 0.077 0.771 0.54 1.234 0.925-5.32 0.771-9.33-2.39-9.484-7.402-0.077-4.010 2.622-6.323 5.629-7.634 0-0.154-0.154-0.308-0.154-0.463-3.393 1.002-6.4 3.933-6.014 8.79 0.308 4.627 4.704 8.405 10.024 7.48 0.231-0.077 0.54-0.231 0.848-0.231 0.463 0 1.080 0.386 1.619 0.54 0.54 0.231 1.157 0.463 1.619 0.54 1.234 0 2.39 0 3.547 0 4.627-1.157 7.557-3.933 8.251-9.022 0-0.54 0-1.080 0-1.619-0.771-5.089-3.855-8.79-9.33-9.176zM11.566 13.263c0.463 0.231 0.694 0.694 1.002 1.080-0.154 0.231-0.231 0.617-0.308 0.925-0.694-0.231-1.080-0.848-1.619-1.157 0.154-0.463 0.617-0.54 0.925-0.848zM9.947 14.573c0.848 0.386 1.388 1.080 2.082 1.696 0.077 0.231-0.154 0.308-0.077 0.617-1.080-0.231-2.005-0.463-3.007-0.771 0.308-0.617 0.694-1.080 1.002-1.542zM8.79 16.733c0.077 0 0.077 0.077 0.077 0.077 0.54 0.077 1.234 0.231 1.774 0.386 0.463 0.154 1.234 0.231 1.388 0.771-0.848 0.386-2.236 0.154-3.47 0.154 0-0.54 0.077-1.080 0.231-1.388zM8.636 18.814c1.157 0 2.467-0.077 3.393 0.154 0.077 0.694-0.848 0.694-1.388 0.848-0.54 0.231-1.234 0.386-1.774 0.463-0.154-0.308-0.386-1.002-0.231-1.465zM9.176 20.896c1.002-0.308 2.005-0.617 3.084-0.848 0 0.077 0 0.308 0.154 0.308-0.694 0.771-1.542 1.388-2.39 1.928-0.308-0.463-0.694-0.771-0.848-1.388zM10.641 22.824c0-0.077 1.465-1.388 2.005-1.542 0.463 0.848-0.463 1.542-0.617 2.39-0.154-0.077-1.388-0.54-1.388-0.848zM12.646 23.904c0.154-0.463 0.463-0.771 0.617-1.234 0.54 0.308 0.617 1.080 1.234 1.388-0.617 0.231-1.388 0-1.851-0.154zM31.383 18.275c-0.308 4.704-3.778 8.096-8.174 8.636-5.552 0.617-11.643-4.010-10.487-11.027 0.617-3.47 3.239-6.169 6.246-7.171 0.54-0.154 1.234-0.308 2.082-0.386 3.239-0.308 5.86 0.925 7.557 2.622 1.619 1.619 3.007 4.087 2.776 7.325zM22.361 10.949c0.154-0.463 0.077-1.234 0.077-1.851-1.080-0.54-0.771 1.234-0.694 1.851 0.231 0 0.386 0 0.617 0zM20.048 10.41c-2.545 0.771-4.318 2.39-5.166 4.858 0.231 0.077 0.386 0.231 0.617 0.154 0.848-2.236 2.545-3.701 4.858-4.472-0.231-0.077 0-0.617-0.308-0.54zM24.752 10.564c-0.154 0.154-0.231 0.386-0.308 0.694 2.236 0.694 3.547 2.236 4.318 4.318 0.231 0 0.386-0.077 0.617-0.154-0.771-2.39-2.313-4.010-4.627-4.858zM27.682 17.735c0-0.154 0-0.231 0-0.386-0.848-0.154-2.082-0.154-3.161-0.154-0.386 0-1.002 0.308-1.157-0.308 0.925-1.002 2.313-1.619 3.161-2.545-0.154-0.154-0.154-0.463-0.386-0.463-1.157 0.848-2.159 1.696-3.316 2.467-1.542-1.080-3.161 1.080-2.005 2.313 0.925 1.002 2.39 0.308 2.853-0.848 1.388 0.077 2.853 0.077 4.010-0.077zM22.207 18.429c-0.925 0.154-1.542-1.157-0.54-1.542 1.465-0.54 1.465 1.388 0.54 1.542zM2.622 15.113c-1.080 0-2.005 0-2.545 0 0 0.308 0 0.54 0 0.771 1.619-0.077 3.624 0.231 4.935-0.154 0.308-0.925-1.542-0.617-2.39-0.617zM4.241 18.737c0.308-0.925-1.157-0.617-2.005-0.617-0.925 0-1.774 0-2.236 0 0 0.231 0 0.463 0 0.694 1.388-0.077 3.161 0.231 4.241-0.077zM15.113 19.354c-0.231-0.077-0.231 0.154-0.386 0.077 0.54 2.622 2.313 4.627 4.781 5.475 0-0.308 0.231-0.308 0.154-0.617-1.080-0.54-2.005-1.080-2.776-1.928s-1.157-1.928-1.774-3.007zM24.443 24.443c0.077 0.154 0.154 0.308 0.154 0.463 2.467-0.848 4.010-2.467 4.781-4.935-0.231 0-0.308-0.154-0.54-0.154-0.771 2.236-2.467 3.547-4.395 4.627zM0 21.051c0 0.231 0 0.463 0 0.694 1.696 0 3.393 0 5.012 0 0-0.231 0-0.463 0-0.694-1.542-0.154-3.316 0-5.012 0zM22.439 24.058c-1.080-0.617-0.771 1.234-0.694 1.773 0.231 0 0.386 0 0.617 0 0.154-0.463 0.077-1.234 0.077-1.773z"></path>
</symbol>
<symbol id="order-complete" viewBox="0 0 32 32">
<path d="M31.253 14.242c-0.176-2.725-1.055-4.923-2.198-6.857-0.352 0.176-0.791 0.703-0.967 1.143 1.846 2.725 2.286 7.385 1.319 10.901-0.967 3.253-3.165 5.978-5.626 7.648-2.637 1.846-6.593 2.989-10.637 2.198-3.516-0.703-6.242-2.549-8.264-5.011-1.934-2.462-3.429-5.978-2.989-10.198 0.352-3.692 2.022-6.769 4.396-8.879 2.286-2.11 5.451-3.692 9.582-3.78 4.22-0.088 7.033 1.67 9.582 3.692 0.176-0.352 0.615-0.615 0.791-1.055-2.462-2.286-5.626-3.868-10.198-4.044-0.088 0-0.176 0-0.264 0-4.659 0.264-8.176 1.934-10.637 4.484-2.462 2.462-4.396 5.802-4.659 10.462 0 0.352 0 0.791 0 1.143 0.44 5.451 2.637 9.143 6.066 11.78 3.253 2.462 8.967 4.132 14.066 2.374 4.308-1.407 7.648-4.483 9.407-8.44 0.879-2.022 1.494-4.747 1.231-7.56zM10.066 14.769c-0.176-0.176-0.527-0.703-0.703-0.703s-0.791 1.055-0.879 1.055c2.286 2.11 4.483 4.22 6.769 6.33 4.747-5.802 9.67-11.429 14.418-17.143-0.352-0.352-0.615-0.615-1.055-0.879-4.483 5.363-8.967 10.725-13.626 16-1.407-1.407-3.253-3.165-4.923-4.659z"></path>
</symbol>
<symbol id="close-delete" viewBox="0 0 32 32">
<path d="M32 29.164l-13.236-13.236 13.091-13.236-2.764-2.618-13.091 13.091-13.236-13.091-2.618 2.618 13.091 13.236-13.236 13.236 2.764 2.764 13.236-13.236 13.236 13.236z"></path>
</symbol>
<symbol id="comments" viewBox="0 0 32 32">
<path d="M3.93 31.607c-0.225 0-0.449 0-0.674 0-1.123-0.225-2.358 0-2.695-0.898-0.561-1.347 0.674-2.47 1.46-3.144 0.898-0.674 1.909-1.347 2.358-2.246 0.225-0.337 0.449-1.011 0.449-1.46 0-0.561-1.011-1.235-1.347-1.684-1.572-1.909-2.582-3.93-2.807-6.737-0.337-4.267 1.347-7.186 3.256-9.432s4.604-3.93 7.972-4.828c3.593-0.786 7.972-0.337 10.891 1.011 2.807 1.235 5.277 3.256 6.849 5.951s2.358 6.512 1.123 10.218c-1.011 3.256-3.032 5.502-5.614 7.186s-5.726 2.919-10.105 2.582c-0.449 0-1.235-0.225-1.684-0.112-0.225 0-0.674 0.337-0.898 0.561-2.47 1.572-4.94 2.695-8.533 3.032zM10.891 26.667c0.561-0.337 1.347-1.123 1.909-1.235 0.449 0 1.011 0.112 1.46 0.112 3.818 0.449 6.961-0.561 9.432-2.021 2.47-1.684 4.716-4.154 5.165-7.972 0.561-4.491-1.684-7.523-3.818-9.319-2.358-2.021-5.502-3.481-10.105-3.256-5.389 0.449-9.207 3.368-11.004 7.186-1.011 2.246-1.235 5.053-0.337 7.523 0.561 1.684 1.46 2.919 2.695 4.154 0.337 0.337 0.786 0.786 1.011 1.235 0.337 1.347-0.449 2.919-1.011 3.705s-1.46 1.572-2.133 2.133c-0.112 0.112-0.225 0.112-0.225 0.225 3.032-0.225 5.053-1.123 6.961-2.47z"></path>
</symbol>
</defs>
</svg>
