<!-- Generated by IcoMoon.io -->
<svg version="1.1" xmlns="http://www.w3.org/2000/svg" width="32" height="32" viewBox="0 0 32 32">
<title>pizza-menu-icon</title>
<path d="M17.535 9.535c-2.263-1.616-4.848-2.909-7.758-3.879-1.455-0.485-2.747-0.646-4.202-0.97l-4.525 27.313 25.374-13.414c-0.646-1.131-1.455-2.263-2.263-3.394-1.939-2.263-4.202-4.202-6.626-5.657zM7.515 24.081c-0.485 0.646-1.293 0.808-1.939 0.323-0.808-0.485-0.97-1.293-0.485-1.939s1.293-0.808 2.101-0.323c0.646 0.485 0.808 1.293 0.323 1.939zM8.485 14.545c-0.97-0.646-1.131-1.778-0.485-2.747 0.646-0.808 1.778-1.131 2.747-0.485s1.131 1.939 0.485 2.747c-0.485 0.808-1.939 1.131-2.747 0.485zM16.404 21.010c-1.131 1.455-3.232 1.939-4.848 0.808-1.616-0.97-1.939-3.071-0.808-4.525s3.071-1.778 4.848-0.808c1.455 1.131 1.939 3.071 0.808 4.525zM30.949 16.646c-0.162-0.323-3.071-6.303-10.505-11.152-7.273-4.848-14.061-5.495-14.707-5.495l-0.162 3.394c0.485 0 6.303 0.646 12.929 4.849 6.303 4.364 8.889 9.535 9.212 9.859z"></path>
</svg>
