<!-- Generated by IcoMoon.io -->
<svg version="1.1" xmlns="http://www.w3.org/2000/svg" width="32" height="32" viewBox="0 0 32 32">
<title>quote</title>
<path d="M12.26 5.818c-1.039-0.935-2.493-1.662-4.26-1.766s-3.325 0.208-4.26 0.727c-1.766 0.831-3.429 3.013-3.636 5.195-0.104 1.87 0.312 3.948 1.351 5.299 1.143 1.351 3.325 2.701 5.922 2.494 0.623 0 0.935-0.312 1.766-0.208 0.623 0.623 0.519 1.662 0.312 2.39-0.208 0.831-0.416 1.766-0.727 2.286-0.727 1.143-1.974 1.87-3.221 2.286-0.519 0.104-1.351 0.208-1.662 0.416-0.312 0.623-0.312 2.597 0.312 3.013 0.312 0.208 0.831 0 1.351-0.104 2.078-0.416 3.221-1.143 4.675-2.286 2.909-2.182 4.987-5.922 5.299-10.39 0.104-1.974-0.312-3.844-0.831-5.403-0.519-1.662-1.351-3.117-2.39-3.948zM30.13 7.377c-1.351-1.766-3.013-3.117-5.714-3.325-2.494-0.208-4.26 0.519-5.506 1.662-0.935 0.831-2.078 2.494-2.286 4.156-0.104 1.766 0.208 3.74 1.143 5.091 1.039 1.558 3.429 2.909 6.13 2.805 0.519 0 1.039-0.208 1.766-0.208 0.831 0.623 0.416 1.766 0.312 2.597-0.208 0.831-0.519 1.766-1.039 2.39-0.519 0.935-1.87 1.558-2.909 1.87-0.623 0.208-1.455 0.208-1.662 0.519-0.208 0.416-0.208 2.39 0.208 2.805 0.312 0.208 1.039 0.104 1.558 0 0.623-0.208 1.143-0.208 1.558-0.416 1.558-0.519 3.429-1.974 4.571-3.117 1.039-1.039 1.87-2.494 2.597-4.052 0.623-1.662 1.143-3.636 1.143-5.61 0-2.494-0.623-5.299-1.87-7.169z"></path>
</svg>
