<!-- Generated by IcoMoon.io -->
<svg version="1.1" xmlns="http://www.w3.org/2000/svg" width="32" height="32" viewBox="0 0 32 32">
<title>salads</title>
<path d="M5.551 10.884c0.218 7.946 14.476 9.034 20.027 4.898-1.524-2.395-2.721-5.551-4.898-8.054-1.741-2.068-4.789-5.224-7.837-5.224-2.503-0.109-3.483 1.306-4.463 2.939-0.327-0.435-1.088-1.633-1.415-2.939-0.218-0.98-0.109-2.503-1.306-1.742-0.327 2.503 1.088 4.354 2.068 5.986-1.415 0.653-2.177 2.612-2.177 4.136zM8.381 7.728c2.177 1.959 4.68 4.027 7.51 5.66 0.762 0.435 1.85 1.524 2.83 0.871-0.218-1.197-1.524-1.415-2.395-1.959-1.742-1.088-3.048-2.068-4.789-3.592-0.653-0.544-2.068-1.524-2.177-2.177-0.109-1.524 2.177-3.156 4.136-2.83 0.327 0 0.871 0.218 1.088 0.435 4.245 1.85 7.619 7.619 9.361 11.211-5.007 2.721-15.238 1.85-16.98-3.374-0.544-1.524 0-3.592 1.415-4.245zM31.020 14.803c-0.762-2.177-3.701-2.612-5.986-3.374-0.109 0-0.327 0.109-0.327 0.218-0.109 0.109-0.218 0.218-0.218 0.327 0.98 1.415 5.551 1.306 5.442 3.701-0.109 0.762-1.415 1.524-2.395 2.068-5.224 2.177-13.605 2.286-19.701 0.98-2.286-0.544-5.986-1.306-5.878-3.156 0-1.959 2.612-1.197 3.048-3.048-0.762-0.762-1.742 0.109-2.395 0.544-0.762 0.544-1.524 1.088-1.742 1.85-0.762 2.939 0.762 6.422 1.524 7.946 1.197 2.286 2.395 4.245 4.136 5.66 4.136 3.483 12.517 3.483 17.088 1.088 2.395-1.197 4.245-3.592 5.442-5.769 0.871-1.633 2.83-6.204 1.959-9.034zM22.531 28.735c-4.245 1.85-10.993 1.633-14.694-0.762-2.83-1.85-5.007-6.095-5.769-10.122 0 0 0 0 0.109 0.109 6.095 3.374 20.027 3.918 26.667 0.544 0.327-0.218 0.653-0.762 0.98-0.435-1.197 4.68-3.156 8.816-7.293 10.667z"></path>
</svg>
