<!-- Generated by IcoMoon.io -->
<svg version="1.1" xmlns="http://www.w3.org/2000/svg" width="32" height="32" viewBox="0 0 32 32">
<title>scooter</title>
<path stroke="white" fill="white" d="M31 20.417c-0.5-2.167-2.5-3-5.167-3.167 0-1.5-0.833-2.167-1.5-3.167-1.5-2-2.5-4.167-3.333-6.833 1 0 2.167 0.333 2.5-0.333 0.333-0.5 0.167-1.667 0.167-2.167-0.167-0.5-0.833-0.5-1.333-0.667 0 0-0.167 0-0.333 0-1.333 0.333-2.5 0.5-2.667 1.667-0.667 0.333-1.167 0.667-2 1-0.5 0.167-1.667 0.5-1.667 1.167 0 0.833 1.333 0.5 1.833 0.333 0.667-0.333 1.167-0.833 1.833-1 0.667 2.833 2.333 6.833 0.667 10.167-1 1.667-3 2.333-5.833 2.333-2.333-0.167-3.167-1.167-2.833-3.833 0.167-0.5 0.333-1.167 0.167-1.5-0.5-0.5-1.667 0-2.333 0.333-2.333 0.5-5.833 0.333-7.833-0.333-0.5 1.167-1.333 3.333-1 5 0.333 0.833 1.167 1.167 1.833 1.5-1.5 3.333 0.833 6.5 3.5 6.833 2.667 0.167 5.333-1.667 5-4.833 3.5 0.333 7.5 0.167 10-0.667-0.333 1 0.167 2 1.333 1.833 0.333 2.167 2.333 3.667 4.833 3.333 3-0.333 5.167-3.833 3.5-6.833 0.167 0 0.5 0 0.667-0.167zM6 25.583c-2 0-3.333-2.167-2.167-4.167 0.5 0.167 1.167 0.333 1.833 0.5 0 0.167-0.5 0.5-0.5 0.833 0 0.5 0.167 1 0.833 1.167 0.833 0 1.167-1.167 1.667-1.5 0.333 0 0.667 0 1 0 0.167 2-1.167 3.167-2.667 3.167zM26.333 25.583c-1.167 0-2.333-1-2.667-2.167 0-0.5 0-1.333 0.5-1.667 0.833 0.5 1 2.167 2.167 2.167 0.5 0 1-0.333 1-0.833 0-1-1.333-1.333-1.333-2 0.5 0 1-0.5 1.5-0.333 1 0.167 1.5 1.333 1.5 2.333 0 1.167-1.167 2.5-2.667 2.5zM2.667 13.25c1.167 0 2.333 0 3.333 0 2.333 0 4.333 0 5.833-0.833 0.167-1.833-2.667-1.333-4.5-1.333-2.333 0-4.333-0.167-5.833 0-0.667 0.167-1.333 0.667-1.167 1.333 0 0.5 1.833 0.667 2.333 0.833z"></path>
</svg>
