<!-- Generated by IcoMoon.io -->
<svg version="1.1" xmlns="http://www.w3.org/2000/svg" width="32" height="32" viewBox="0 0 32 32">
<title>search</title>
<path d="M31.086 29.714l-6.4-6.705c1.981-2.438 3.352-5.486 3.352-8.99 0-7.771-6.095-14.019-13.562-14.019-7.619 0-13.562 6.248-13.562 14.019 0 7.619 5.943 13.867 13.562 13.867 3.048 0 5.638-0.914 7.924-2.59l6.4 6.705zM2.438 14.019c0-6.857 5.333-12.343 12.038-12.343 6.552 0 11.886 5.486 11.886 12.343s-5.333 12.19-11.886 12.19c-6.705 0-12.038-5.333-12.038-12.19z"></path>
</svg>
