<!-- Generated by IcoMoon.io -->
<svg version="1.1" xmlns="http://www.w3.org/2000/svg" width="32" height="32" viewBox="0 0 32 32">
<title>store-locator-menu</title>
<path d="M15.138 0c0.575 0 1.15 0 1.725 0 5.269 0.766 8.24 3.737 8.814 9.198 0 0.096 0 0.192 0 0.287-0.383 4.599-2.204 8.623-3.928 12.263s-3.641 6.994-5.748 10.252c-2.97-4.982-6.419-10.443-8.335-16.671-0.575-1.629-1.054-3.353-1.15-5.078-0.192-2.012 0.287-3.641 1.054-5.174 1.245-2.587 3.832-4.695 7.569-5.078zM11.88 6.707c-1.916 3.258 1.15 7.377 4.982 6.611 2.108-0.479 4.216-2.491 3.545-5.365-0.096-0.671-0.479-1.245-0.671-1.533-0.766-1.15-2.108-2.012-3.928-2.012-2.012 0.096-3.258 1.15-3.928 2.299z"></path>
</svg>
