<!-- Generated by IcoMoon.io -->
<svg version="1.1" xmlns="http://www.w3.org/2000/svg" width="32" height="32" viewBox="0 0 32 32">
<title>tacos</title>
<path d="M31.477 18.824c-0.209-1.15-1.046-1.673-1.15-2.614-0.418-1.778 0.209-2.824-0.418-4.078-0.314-0.837-0.837-1.569-1.464-1.987-0.523-0.523-1.464-0.418-2.301-1.046-0.627-0.418-0.732-1.255-1.255-1.882-0.314-0.523-1.046-1.046-1.673-1.359-0.941-0.418-1.882-0.314-2.719-0.523-1.778-0.523-2.301-1.778-4.183-1.778-0.523 0-1.046 0-1.673 0.209-1.046 0.314-1.673 1.15-2.928 1.569-0.941 0.209-1.778 0.105-2.824 0.523-0.732 0.314-1.464 0.941-1.778 1.359-0.418 0.418-0.627 1.464-1.255 1.882-0.941 0.732-1.778 0.523-2.614 1.359-0.837 0.732-1.569 1.778-1.673 2.928-0.105 0.732 0.314 1.464 0.105 2.614-0.105 1.255-1.464 1.987-1.464 3.765 0 0.105 0 0.105 0 0.209-0.209 1.569 1.046 2.301 1.359 3.451 0.418 1.987-0.418 3.869 1.464 4.497 1.464 0.523 4.392 0.105 6.484 0.105 4.392 0 8.261 0 12.967 0 2.405 0 5.124 0.418 6.484-0.105 1.882-0.627 1.15-2.091 1.569-4.392 0.105-1.359 1.464-2.405 0.941-4.706zM1.673 20.288c-0.105 1.046-0.314-0.627-0.209-1.359 0.209-0.523 0.627-0.941 0.732-1.046 0.209-0.418-0.418 1.778-0.523 2.405zM4.601 10.876c0.627-0.314 1.359-0.314 1.987-0.837 0.732-0.523 1.046-1.882 1.987-2.614 1.046-0.732 2.614-0.627 3.66-0.941 1.673-0.523 2.614-2.405 5.124-1.464 0.837 0.314 1.464 1.15 2.301 1.464 1.569 0.523 3.033 0.209 3.974 1.255 0.732 0.732 0.941 1.882 1.569 2.301 0.627 0.523 1.569 0.418 2.51 1.046 1.359 1.046 1.673 3.033 1.255 5.124-2.405-4.392-6.379-8.261-12.758-8.261-6.693 0-10.876 3.765-13.281 8.366-0.523-2.405 0-4.497 1.673-5.438zM28.863 26.667c-5.961 0.418-12.758 0.209-19.451 0.209-1.569 0-5.542 0.418-6.274-0.209-0.523-0.418-0.314-2.091-0.314-2.614 0-0.837-0.105-2.091 0-2.824 0.523-6.797 6.065-11.922 12.863-12.026 7.216-0.105 12.967 5.229 13.49 12.026 0.209 1.778 0.105 3.556-0.314 5.438zM30.431 20.601c-0.314-0.837-0.314-1.987-0.837-2.719 0.523-0.209 0.941 1.569 0.837 2.719zM10.98 18.51c-0.105-0.627-0.523-1.15-1.464-1.046-0.732 0.209-1.15 0.627-1.15 1.046-0.209 2.091 2.824 1.778 2.614 0zM6.588 20.288c-0.837 0-1.15 0.314-1.15 0.941-0.314 2.196 2.719 1.778 2.405-0.105-0.105-0.523-0.418-0.941-1.255-0.837zM9.83 22.065c-1.673 0.627-0.314 2.405 0.627 2.301 1.359 0 1.673-3.137-0.627-2.301z"></path>
</svg>
