<!-- Generated by IcoMoon.io -->
<svg version="1.1" xmlns="http://www.w3.org/2000/svg" width="32" height="32" viewBox="0 0 32 32">
<title>veggie-icon</title>
<path d="M1.34 0.631c-0.158-0.158 0-0.315 0.158-0.315 6.936-0.315 12.453 0.788 17.498 2.522 5.202 1.576 9.458 4.729 11.034 10.089 0 0.788 0.315 1.419 0.315 2.207 0.473 4.414-0.631 9.3-2.837 12.926-0.788 1.103-1.419 2.522-2.837 3.31-1.576-8.67-5.202-15.291-10.562-19.862 0.473 1.261 1.261 2.522 2.049 3.941 0.631 1.261 1.261 2.837 1.734 4.256 1.103 2.995 2.365 6.305 2.522 9.773 0 0.631-0.158 1.892-0.946 2.207-0.946 0.315-3.153-1.103-3.941-1.419-5.517-2.837-9.458-8.67-10.404-16.236-0.631-4.729 0.946-11.034-3.783-13.399z"></path>
</svg>
