<!-- Generated by IcoMoon.io -->
<svg version="1.1" xmlns="http://www.w3.org/2000/svg" width="32" height="32" viewBox="0 0 32 32">
<title>wraps</title>
<path d="M6.654 10.159c-0.203 1.829 0.203 3.556 0.305 5.181 0.305 3.251 0.711 6.4 1.219 9.752 0.305 2.743 0.203 5.384 2.336 6.4 1.321 0.508 3.657 0.406 5.689 0.508 3.149 0 5.994-0.203 7.010-2.133 0.508-1.016 0.61-2.743 0.813-4.368 0.711-4.267 1.321-10.159 1.524-14.425 0 0 0-0.102 0-0.203-0.102-10.87-17.879-10.463-18.895-0.711zM9.803 6.197c2.743-2.743 9.041-2.946 11.886-0.711 1.117 0.711 2.844 2.743 1.422 4.267-0.711-1.524-2.032-2.946-4.267-2.54-1.117-0.914-2.844-2.032-4.775-1.422-0.102 0.406 0 0.914 0.203 1.219-2.641 0.406-4.267 1.727-5.384 3.657-1.727-1.016-0.203-3.454 0.914-4.47zM14.679 10.159c1.829 0.508 0.914-2.337 0.711-3.251 2.235 0 2.743 1.829 3.759 3.048 0.406 0 0.406-0.203 0.711-0.406 0.102-0.711-0.305-0.711-0.305-1.321 1.422 0.102 2.133 0.914 2.54 2.235-2.235 0.914-5.283 1.016-6.806 2.743-1.524-0.914-3.454-1.422-5.283-1.93 0.813-1.727 2.133-2.946 4.571-3.048 0.102 0.508-0.102 1.524 0.102 1.93zM9.905 29.46c-0.508-1.016-0.406-2.844-0.711-4.368-0.508-4.267-1.219-9.752-1.422-13.714 1.829 1.321 4.673 1.625 6.705 2.743-2.743 4.064-2.844 13.308 0.203 16.762-1.829-0.203-3.962 0.102-4.775-1.422zM22.806 25.092c-0.203 1.625-0.305 4.064-1.016 4.876-1.016 1.117-3.149 0.61-4.978 0.914-3.556-2.032-4.165-8.432-2.54-13.308 0.406-1.524 1.117-3.251 2.032-4.064 2.032-1.727 6.095-1.016 7.721-3.149 0.508 3.352-0.508 10.565-1.219 14.73zM16.711 16.965c-1.321 0.61-0.508 2.337 0.61 2.235 1.422-0.102 1.321-2.946-0.61-2.235zM18.844 20.419c-1.524 0.508 1.016 1.93 0.711 0.406-0.102-0.406-0.406-0.508-0.711-0.406z"></path>
</svg>
